<?xml version="1.0" encoding="UTF-8" standalone="no"?>
<!-- Created with Inkscape (http://www.inkscape.org/) -->

<svg
   width="210mm"
   height="297mm"
   viewBox="0 0 210 297"
   version="1.1"
   id="svg1910"
   xmlns="http://www.w3.org/2000/svg"
   xmlns:svg="http://www.w3.org/2000/svg">
  <defs
     id="defs1907" />
  <g
     id="layer1">
    <path
       style="fill:#9c9c9c;fill-opacity:1;stroke:none;stroke-width:0.892352;stroke-linecap:round;stroke-linejoin:round;paint-order:stroke fill markers"
       d="M 53.743848,58.57482 V 99.6896 c 0,2.04576 1.66028,3.65663 3.69364,3.43573 14.48163,-1.57325 27.64601,-9.1737 36.24929,-20.92855 1.20798,-1.65049 0.64307,-3.89377 -1.1286,-4.91664 L 56.951748,56.72273 a 2.1386006,2.1386006 0 0 0 -3.2079,1.85209 z"
       id="path6942" />
    <path
       style="fill:#9c9c9c;fill-opacity:1;stroke:none;stroke-width:0.892352;stroke-linecap:round;stroke-linejoin:round;paint-order:stroke fill markers"
       d="m 46.747038,56.72273 -35.60644,20.55741 c -1.77167,1.02287 -2.33658,3.26615 -1.1286,4.91665 8.60329,11.75484 21.76766,19.3553 36.2493,20.92854 2.03336,0.2209 3.69364,-1.38997 3.69364,-3.43573 V 58.57482 a 2.1386008,2.1386008 0 0 0 -3.2079,-1.85209 z"
       id="path6940" />
    <path
       style="fill:#9c9c9c;fill-opacity:1;stroke:none;stroke-width:0.892352;stroke-linecap:round;stroke-linejoin:round;paint-order:stroke fill markers"
       d="m 4.418488,30.65801 c -2.41536,5.45302 -3.87237,11.28221 -4.30676,17.23037 -0.14897,2.03989 -0.14897,5.36175 0,7.40164 0.43439,5.94816 1.8914,11.77733 4.30676,17.23035 0.82833,1.87008 3.05597,2.50117 4.82764,1.4783 l 35.60644,-20.55739 a 2.1386024,2.1386024 0 0 0 0,-3.70416 L 9.246128,29.17971 c -1.77167,-1.02287 -3.99931,-0.39178 -4.82764,1.4783 z"
       id="path6938" />
    <path
       style="fill:#9c9c9c;fill-opacity:1;stroke:none;stroke-width:0.892352;stroke-linecap:round;stroke-linejoin:round;paint-order:stroke fill markers"
       d="m 94.483128,29.16211 -35.63694,20.57498 a 2.1386235,2.1386235 0 0 0 -10e-6,3.70419 l 35.60648,20.55786 c 1.77167,1.02289 3.9993,0.39181 4.82763,-1.47827 2.415432,-5.45318 3.872462,-11.28254 4.306802,-17.23088 0.14896,-2.03989 0.15135,-5.36173 0.005,-7.40183 -0.42601,-5.95213 -1.87597,-11.7866 -4.285832,-17.24571 -0.82599,-1.87112 -3.05179,-2.50321 -4.82346,-1.48034 z"
       id="path6936" />
    <path
       style="fill:#9c9c9c;fill-opacity:1;stroke:none;stroke-width:0.892352;stroke-linecap:round;stroke-linejoin:round;paint-order:stroke fill markers"
       d="m 46.261298,0.05302 c -14.48164,1.57324 -27.64601,9.1737 -36.2493,20.92855 -1.20798,1.65049 -0.64307,3.89377 1.1286,4.91664 l 35.60644,20.55742 a 2.1386004,2.1386004 0 0 0 3.2079,-1.85209 V 3.48875 c 0,-2.04576 -1.66028,-3.65663 -3.69364,-3.43573 z"
       id="path6934" />
    <path
       style="fill:#2b9747;fill-opacity:1;stroke:none;stroke-width:0.892352;stroke-linecap:round;stroke-linejoin:round;paint-order:stroke fill markers"
       d="m 53.743848,3.45725 v 41.14633 a 2.1386177,2.1386177 0 0 0 3.20791,1.85211 l 35.63483,-20.57347 c 1.77168,-1.02286 2.33707,-3.26643 1.12965,-4.91733 C 85.109398,9.19686 71.932468,1.58943 57.437588,0.02016 c -2.03344,-0.22015 -3.69374,1.39133 -3.69374,3.43709 z"
       id="path6900" />
  </g>
</svg>
