<?xml version="1.0" encoding="UTF-8" standalone="no"?>
<!-- Created with Inkscape (http://www.inkscape.org/) -->

<svg
   width="210mm"
   height="297mm"
   viewBox="0 0 210 297"
   version="1.1"
   id="svg67517"
   inkscape:version="1.1.1 (3bf5ae0d25, 2021-09-20)"
   sodipodi:docname="ticker_4.svg"
   xmlns:inkscape="http://www.inkscape.org/namespaces/inkscape"
   xmlns:sodipodi="http://sodipodi.sourceforge.net/DTD/sodipodi-0.dtd"
   xmlns="http://www.w3.org/2000/svg"
   xmlns:svg="http://www.w3.org/2000/svg">
  <sodipodi:namedview
     id="namedview67519"
     pagecolor="#ffffff"
     bordercolor="#666666"
     borderopacity="1.0"
     inkscape:pageshadow="2"
     inkscape:pageopacity="0.0"
     inkscape:pagecheckerboard="0"
     inkscape:document-units="mm"
     showgrid="false"
     inkscape:snap-page="true"
     inkscape:snap-bbox="true"
     inkscape:bbox-paths="true"
     inkscape:bbox-nodes="true"
     inkscape:snap-bbox-edge-midpoints="true"
     inkscape:snap-bbox-midpoints="true"
     inkscape:zoom="1"
     inkscape:cx="223"
     inkscape:cy="303.5"
     inkscape:window-width="2560"
     inkscape:window-height="1369"
     inkscape:window-x="-8"
     inkscape:window-y="-8"
     inkscape:window-maximized="1"
     inkscape:current-layer="layer1" />
  <defs
     id="defs67514" />
  <g
     inkscape:label="Layer 1"
     inkscape:groupmode="layer"
     id="layer1">
    <g
       id="g69778"
       transform="scale(1.747987)">
      <path
         id="path67582"
         style="fill:#9c9c9c;fill-opacity:1;stroke:none;stroke-width:0.753642;stroke-linecap:round;stroke-linejoin:round;stroke-miterlimit:4;stroke-dasharray:none;stroke-dashoffset:0;stroke-opacity:1;paint-order:stroke fill markers"
         d="M 8.547038,8.560466 C 7.343289,9.764122 6.242649,11.070764 5.259113,12.466412 4.275578,13.862062 3.40912,15.346682 2.674028,16.906094 1.938937,18.4655 1.335131,20.099718 0.876714,21.794652 0.647505,22.642123 0.454624,23.504823 0.299896,24.38088 0.222506,24.818911 0.154666,25.260243 0.09659,25.704759 0.06905,25.915283 0.05111,26.128815 0.02801,26.340709 A 1.7826884,1.7826884 0 0 0 0.0087,26.520388 1.7826884,1.7826884 0 0 0 0,26.650081 a 1.7826884,1.7826884 0 0 0 0.252651,0.909008 1.7826884,1.7826884 0 0 0 0.387456,0.456687 1.7826884,1.7826884 0 0 0 0.01164,0.0091 1.7826884,1.7826884 0 0 0 0.521256,0.299358 1.7826884,1.7826884 0 0 0 0.0098,0.0029 1.7826884,1.7826884 0 0 0 0.597165,0.105711 1.7826884,1.7826884 0 0 0 0.0026,0 h 0.25818 1.235313 22.880135 c 0.630396,0 1.198324,-0.256016 1.607873,-0.669337 0.413332,-0.409536 0.669316,-0.977474 0.669316,-1.607881 V 3.275544 2.040212 1.782055 a 1.7826884,1.7826884 0 0 1 0,-3.7e-5 1.7826884,1.7826884 0 0 1 0,-3.9e-5 1.7826884,1.7826884 0 0 0 0,-0.0021 1.7826884,1.7826884 0 0 0 -0.105701,-0.597175 1.7826884,1.7826884 0 0 0 -0.0029,-0.0098 1.7826884,1.7826884 0 0 0 -0.299376,-0.521247 1.7826884,1.7826884 0 0 0 -0.009,-0.01154 A 1.7826884,1.7826884 0 0 0 27.559737,0.252666 1.7826884,1.7826884 0 0 0 26.650735,0 1.7826884,1.7826884 0 0 0 26.521036,0.0088 1.7826884,1.7826884 0 0 0 26.341357,0.02822 c -0.211905,0.02315 -0.425423,0.04105 -0.635952,0.06857 -0.444527,0.0581 -0.885852,0.12592 -1.323896,0.203306 -0.876035,0.154749 -1.738762,0.347607 -2.586223,0.576826 -1.69492,0.458422 -3.329146,1.062212 -4.888547,1.797312 -1.559428,0.735099 -3.044031,1.60156 -4.439682,2.585098 -1.39565,0.983538 -2.702295,2.084176 -3.905964,3.287921 -0.0026,0.0021 -0.0037,0.0045 -0.0061,0.0065 -0.0026,0.0021 -0.0045,0.0038 -0.0064,0.0062 z" />
      <path
         id="path67584"
         style="fill:#2b9747;fill-opacity:1;stroke:none;stroke-width:0.753642;stroke-linecap:round;stroke-linejoin:round;stroke-miterlimit:4;stroke-dasharray:none;stroke-dashoffset:0;stroke-opacity:1;paint-order:stroke fill markers"
         d="M 50.528739,8.547816 C 49.325097,7.344063 48.018452,6.243425 46.622801,5.259887 45.227151,4.276349 43.742521,3.409894 42.183119,2.674794 40.623718,1.939692 38.989493,1.335904 37.294545,0.877477 36.447085,0.648268 35.584385,0.455403 34.708323,0.300651 34.270305,0.223271 33.828954,0.155447 33.384454,0.097345 33.173925,0.069825 32.960379,0.051875 32.748501,0.028775 a 1.7826884,1.7826884 0 0 0 -0.179678,-0.01942 1.7826884,1.7826884 0 0 0 -0.129699,-0.0088 1.7826884,1.7826884 0 0 0 -0.909003,0.252664 1.7826884,1.7826884 0 0 0 -0.456697,0.387446 1.7826884,1.7826884 0 0 0 -0.009,0.01154 1.7826884,1.7826884 0 0 0 -0.299349,0.521256 1.7826884,1.7826884 0 0 0 -0.0029,0.0098 1.7826884,1.7826884 0 0 0 -0.105701,0.597167 1.7826884,1.7826884 0 0 0 0,0.0021 v 0.25816 1.235326 22.880121 c 0,0.630404 0.256011,1.198343 0.669343,1.607878 0.409549,0.413325 0.977477,0.669338 1.607873,0.669338 h 22.880135 1.235313 0.258154 a 1.7826884,1.7826884 0 0 0 0.0026,0 1.7826884,1.7826884 0 0 0 0.597165,-0.105709 1.7826884,1.7826884 0 0 0 0.0098,-0.0029 1.7826884,1.7826884 0 0 0 0.521255,-0.29936 1.7826884,1.7826884 0 0 0 0.01164,-0.0091 1.7826884,1.7826884 0 0 0 0.387456,-0.456686 1.7826884,1.7826884 0 0 0 0.252677,-0.909005 1.7826884,1.7826884 0 0 0 -0.0087,-0.129697 1.7826884,1.7826884 0 0 0 -0.01931,-0.179673 c -0.02302,-0.211899 -0.04104,-0.425431 -0.06855,-0.635958 -0.0581,-0.44451 -0.125941,-0.885846 -0.203305,-1.323874 C 58.635265,23.50533 58.44241,22.642629 58.213175,21.795161 57.754758,20.100224 57.150979,18.466007 56.41586,16.9066 55.680769,15.347189 54.814311,13.862564 53.830775,12.466924 52.84724,11.071273 51.7466,9.764623 50.542851,8.560973 c -0.0026,-0.0021 -0.0045,-0.0038 -0.0066,-0.0062 -0.0026,-0.0021 -0.0037,-0.0045 -0.0061,-0.0065 z" />
      <path
         id="path67586"
         style="fill:#9c9c9c;fill-opacity:1;stroke:none;stroke-width:0.753642;stroke-linecap:round;stroke-linejoin:round;stroke-miterlimit:4;stroke-dasharray:none;stroke-dashoffset:0;stroke-opacity:1;paint-order:stroke fill markers"
         d="m 50.514161,50.50203 c 1.203748,-1.203663 2.304388,-2.510306 3.287897,-3.905951 0.983562,-1.39565 1.85002,-2.880278 2.585112,-4.439684 0.735091,-1.559404 1.338871,-3.193622 1.797314,-4.888558 0.229209,-0.847469 0.42209,-1.710172 0.576818,-2.586223 0.07739,-0.438034 0.14523,-0.879369 0.203306,-1.323885 0.02754,-0.210526 0.04548,-0.424053 0.06858,-0.635953 a 1.7826884,1.7826884 0 0 0 0.01932,-0.179673 1.7826884,1.7826884 0 0 0 0.0087,-0.129693 1.7826884,1.7826884 0 0 0 -0.252677,-0.909011 1.7826884,1.7826884 0 0 0 -0.387429,-0.456684 1.7826884,1.7826884 0 0 0 -0.01164,-0.0091 1.7826884,1.7826884 0 0 0 -0.521229,-0.299361 1.7826884,1.7826884 0 0 0 -0.0098,-0.003 1.7826884,1.7826884 0 0 0 -0.597164,-0.105709 1.7826884,1.7826884 0 0 0 -0.0026,0 h -0.258181 -1.235313 l -22.880134,1.1e-5 c -0.630397,-1.1e-5 -1.198325,0.256005 -1.607873,0.669332 -0.413332,0.409535 -0.669343,0.977471 -0.669343,1.607881 v 22.880121 1.235321 0.258167 a 1.7826884,1.7826884 0 0 1 0,3.2e-5 1.7826884,1.7826884 0 0 0 0,0.0021 1.7826884,1.7826884 0 0 0 0.105727,0.597167 1.7826884,1.7826884 0 0 0 0.0029,0.0098 1.7826884,1.7826884 0 0 0 0.299349,0.52125 1.7826884,1.7826884 0 0 0 0.009,0.01156 1.7826884,1.7826884 0 0 0 0.456697,0.387445 1.7826884,1.7826884 0 0 0 0.909003,0.252667 1.7826884,1.7826884 0 0 0 0.129699,-0.0088 1.7826884,1.7826884 0 0 0 0.179678,-0.01942 c 0.211905,-0.02315 0.425424,-0.04105 0.635953,-0.06857 0.4445,-0.0581 0.885851,-0.125926 1.323869,-0.203306 0.876062,-0.154747 1.738762,-0.347607 2.586223,-0.576826 1.694947,-0.458428 3.329172,-1.062215 4.888573,-1.797315 1.559402,-0.735102 3.044032,-1.601559 4.439682,-2.585095 1.395651,-0.983538 2.702296,-2.084176 3.905938,-3.287922 0.0026,-0.0021 0.0037,-0.0045 0.0061,-0.0065 0.0026,-0.0021 0.0045,-0.0038 0.0066,-0.0062 z" />
      <path
         id="path67588"
         style="fill:#9c9c9c;fill-opacity:1;stroke:none;stroke-width:0.753642;stroke-linecap:round;stroke-linejoin:round;stroke-miterlimit:4;stroke-dasharray:none;stroke-dashoffset:0;stroke-opacity:1;paint-order:stroke fill markers"
         d="m 8.58691,50.514915 c 1.203669,1.203746 2.510314,2.304384 3.905965,3.287922 1.39565,0.983538 2.880254,1.849996 4.439681,2.585093 1.559402,0.7351 3.193627,1.338889 4.888548,1.797317 0.84746,0.229217 1.710161,0.422074 2.586222,0.576834 0.438045,0.07738 0.87937,0.145195 1.323896,0.203301 0.210503,0.02752 0.424048,0.04547 0.635953,0.06857 a 1.7826884,1.7826884 0 0 0 0.179678,0.01942 1.7826884,1.7826884 0 0 0 0.129672,0.0088 1.7826884,1.7826884 0 0 0 0.909003,-0.252663 1.7826884,1.7826884 0 0 0 0.456697,-0.387448 1.7826884,1.7826884 0 0 0 0.009,-0.01154 1.7826884,1.7826884 0 0 0 0.299376,-0.521253 1.7826884,1.7826884 0 0 0 0.0029,-0.0098 1.7826884,1.7826884 0 0 0 0.105702,-0.597164 1.7826884,1.7826884 0 0 0 0,-0.0021 V 57.022057 55.786725 32.906601 c 0,-0.630409 -0.256011,-1.198345 -0.669317,-1.607878 -0.409548,-0.413329 -0.977477,-0.669338 -1.607899,-0.669338 H 3.301879 2.066539 1.808385 a 1.7826884,1.7826884 0 0 0 -0.0026,0 1.7826884,1.7826884 0 0 0 -0.597191,0.105709 1.7826884,1.7826884 0 0 0 -0.0098,0.0029 1.7826884,1.7826884 0 0 0 -0.521256,0.299355 1.7826884,1.7826884 0 0 0 -0.01164,0.0091 1.7826884,1.7826884 0 0 0 -0.387455,0.456686 1.7826884,1.7826884 0 0 0 -0.252651,0.909006 1.7826884,1.7826884 0 0 0 0.0087,0.129693 1.7826884,1.7826884 0 0 0 0.01932,0.179679 c 0.02302,0.211896 0.04106,0.425423 0.06858,0.635949 0.0581,0.444511 0.125915,0.885852 0.203306,1.323885 0.154754,0.876052 0.347609,1.738755 0.576818,2.586218 0.458443,1.694944 1.062222,3.329159 1.797314,4.888566 0.735092,1.559412 1.601576,3.044031 2.585085,4.439682 0.983562,1.395653 2.084176,2.702295 3.287951,3.905951 0.0026,0.0021 0.0045,0.0038 0.0066,0.0062 0.0026,0.0021 0.0037,0.0045 0.0061,0.0065 z" />
    </g>
  </g>
</svg>
