<?xml version="1.0" encoding="UTF-8" standalone="no"?>
<!-- Created with Inkscape (http://www.inkscape.org/) -->

<svg
   width="210mm"
   height="297mm"
   viewBox="0 0 210 297"
   version="1.1"
   id="svg829"
   inkscape:version="1.1.1 (3bf5ae0d25, 2021-09-20)"
   sodipodi:docname="tickers.svg"
   xmlns:inkscape="http://www.inkscape.org/namespaces/inkscape"
   xmlns:sodipodi="http://sodipodi.sourceforge.net/DTD/sodipodi-0.dtd"
   xmlns="http://www.w3.org/2000/svg"
   xmlns:svg="http://www.w3.org/2000/svg">
  <sodipodi:namedview
     id="namedview831"
     pagecolor="#ffffff"
     bordercolor="#666666"
     borderopacity="1.0"
     inkscape:pageshadow="2"
     inkscape:pageopacity="0.0"
     inkscape:pagecheckerboard="0"
     inkscape:document-units="mm"
     showgrid="false"
     inkscape:snap-global="true"
     inkscape:zoom="0.70710678"
     inkscape:cx="2730.1393"
     inkscape:cy="1810.9005"
     inkscape:window-width="2560"
     inkscape:window-height="1369"
     inkscape:window-x="-8"
     inkscape:window-y="-8"
     inkscape:window-maximized="1"
     inkscape:current-layer="layer1" />
  <defs
     id="defs826">
    <inkscape:path-effect
       effect="fillet_chamfer"
       id="path-effect14032"
       is_visible="true"
       lpeversion="1"
       satellites_param="F,0,0,1,0,3.7041667,0,1 @ F,0,0,1,0,3.7041667,0,1 @ F,0,0,1,0,3.7041667,0,1"
       unit="px"
       method="auto"
       mode="F"
       radius="14"
       chamfer_steps="1"
       flexible="false"
       use_knot_distance="true"
       apply_no_radius="true"
       apply_with_radius="true"
       only_selected="false"
       hide_knots="false" />
    <inkscape:path-effect
       effect="fillet_chamfer"
       id="path-effect14026"
       is_visible="true"
       lpeversion="1"
       satellites_param="F,0,0,1,0,3.7041667,0,1 @ F,0,0,1,0,3.7041667,0,1 @ F,0,0,1,0,3.7041667,0,1 | F,0,0,1,0,3.7041667,0,1 @ F,0,0,1,0,3.7041667,0,1 @ F,0,0,1,0,3.7041667,0,1 | F,0,0,1,0,3.7041667,0,1 @ F,0,0,1,0,3.7041667,0,1 @ F,0,0,1,0,3.7041667,0,1 | F,0,0,1,0,3.7041667,0,1 @ F,0,0,1,0,3.7041667,0,1 @ F,0,0,1,0,3.7041667,0,1 @ F,0,0,1,0,3.7041667,0,1 | F,0,0,1,0,3.7041667,0,1 @ F,0,0,1,0,3.7041667,0,1 @ F,0,0,1,0,3.7041667,0,1 | F,0,0,1,0,3.7041667,0,1 @ F,0,0,1,0,3.7041667,0,1 @ F,0,0,1,0,3.7041667,0,1 | F,0,0,1,0,3.7041667,0,1 @ F,0,0,1,0,3.7041667,0,1 @ F,0,0,1,0,3.7041667,0,1 | F,0,0,1,0,3.7041667,0,1 @ F,0,0,1,0,3.7041667,0,1 @ F,0,0,1,0,3.7041667,0,1"
       unit="px"
       method="auto"
       mode="F"
       radius="14"
       chamfer_steps="1"
       flexible="false"
       use_knot_distance="true"
       apply_no_radius="true"
       apply_with_radius="true"
       only_selected="false"
       hide_knots="false" />
    <inkscape:path-effect
       effect="fillet_chamfer"
       id="path-effect14024"
       is_visible="true"
       lpeversion="1"
       satellites_param="F,0,0,1,0,3.7041667,0,1 @ F,0,0,1,0,3.7041667,0,1 @ F,0,0,1,0,3.7041667,0,1 | F,0,0,1,0,3.7041667,0,1 @ F,0,0,1,0,3.7041667,0,1 @ F,0,0,1,0,3.7041667,0,1 | F,0,0,1,0,3.7041667,0,1 @ F,0,0,1,0,3.7041667,0,1 @ F,0,0,1,0,3.7041667,0,1 | F,0,0,1,0,3.7041667,0,1 @ F,0,0,1,0,3.7041667,0,1 @ F,0,0,1,0,3.7041667,0,1 | F,0,0,1,0,3.7041667,0,1 @ F,0,0,1,0,3.7041667,0,1 @ F,0,0,1,0,3.7041667,0,1 | F,0,0,1,0,3.7041667,0,1 @ F,0,0,1,0,3.7041667,0,1 @ F,0,0,1,0,3.7041667,0,1 | F,0,0,1,0,3.7041667,0,1 @ F,0,0,1,0,3.7041667,0,1 @ F,0,0,1,0,3.7041667,0,1 | F,0,0,1,0,3.7041667,0,1 @ F,0,0,1,0,3.7041667,0,1 @ F,0,0,1,0,3.7041667,0,1"
       unit="px"
       method="auto"
       mode="F"
       radius="14"
       chamfer_steps="1"
       flexible="false"
       use_knot_distance="true"
       apply_no_radius="true"
       apply_with_radius="true"
       only_selected="false"
       hide_knots="false" />
    <inkscape:path-effect
       effect="fillet_chamfer"
       id="path-effect13194"
       is_visible="true"
       lpeversion="1"
       satellites_param="F,0,0,1,0,3.7041667,0,1 @ F,0,0,1,0,3.7041667,0,1 @ F,0,0,1,0,3.7041667,0,1"
       unit="px"
       method="auto"
       mode="F"
       radius="14"
       chamfer_steps="1"
       flexible="false"
       use_knot_distance="true"
       apply_no_radius="true"
       apply_with_radius="true"
       only_selected="false"
       hide_knots="false" />
    <inkscape:path-effect
       effect="fillet_chamfer"
       id="path-effect13188"
       is_visible="true"
       lpeversion="1"
       satellites_param="F,0,0,1,0,3.7041667,0,1 @ F,0,0,1,0,3.7041667,0,1 @ F,0,0,1,0,3.7041667,0,1"
       unit="px"
       method="auto"
       mode="F"
       radius="14"
       chamfer_steps="1"
       flexible="false"
       use_knot_distance="true"
       apply_no_radius="true"
       apply_with_radius="true"
       only_selected="false"
       hide_knots="false" />
    <inkscape:path-effect
       effect="fillet_chamfer"
       id="path-effect13182"
       is_visible="true"
       lpeversion="1"
       satellites_param="F,0,0,1,0,3.7041667,0,1 @ F,0,0,1,0,3.7041667,0,1 @ F,0,0,1,0,3.7041667,0,1 @ F,0,0,1,0,3.7041667,0,1"
       unit="px"
       method="auto"
       mode="F"
       radius="14"
       chamfer_steps="1"
       flexible="false"
       use_knot_distance="true"
       apply_no_radius="true"
       apply_with_radius="true"
       only_selected="false"
       hide_knots="false" />
    <inkscape:path-effect
       effect="fillet_chamfer"
       id="path-effect13176"
       is_visible="true"
       lpeversion="1"
       satellites_param="F,0,0,1,0,3.7041667,0,1 @ F,0,0,1,0,3.7041667,0,1 @ F,0,0,1,0,3.7041667,0,1 @ F,0,0,1,0,3.7041667,0,1"
       unit="px"
       method="auto"
       mode="F"
       radius="14"
       chamfer_steps="1"
       flexible="false"
       use_knot_distance="true"
       apply_no_radius="true"
       apply_with_radius="true"
       only_selected="false"
       hide_knots="false" />
    <inkscape:path-effect
       effect="fillet_chamfer"
       id="path-effect13170"
       is_visible="true"
       lpeversion="1"
       satellites_param="F,0,0,1,0,3.7041667,0,1 @ F,0,0,1,0,3.7041667,0,1 @ F,0,0,1,0,3.7041667,0,1"
       unit="px"
       method="auto"
       mode="F"
       radius="14"
       chamfer_steps="1"
       flexible="false"
       use_knot_distance="true"
       apply_no_radius="true"
       apply_with_radius="true"
       only_selected="false"
       hide_knots="false" />
    <inkscape:path-effect
       effect="fillet_chamfer"
       id="path-effect13164"
       is_visible="true"
       lpeversion="1"
       satellites_param="F,0,0,1,0,3.7041667,0,1 @ F,0,0,1,0,3.7041667,0,1 @ F,0,0,1,0,3.7041667,0,1"
       unit="px"
       method="auto"
       mode="F"
       radius="14"
       chamfer_steps="1"
       flexible="false"
       use_knot_distance="true"
       apply_no_radius="true"
       apply_with_radius="true"
       only_selected="false"
       hide_knots="false" />
    <inkscape:path-effect
       effect="fillet_chamfer"
       id="path-effect13158"
       is_visible="true"
       lpeversion="1"
       satellites_param="F,0,0,1,0,3.7041667,0,1 @ F,0,0,1,0,3.7041667,0,1 @ F,0,0,1,0,3.7041667,0,1"
       unit="px"
       method="auto"
       mode="F"
       radius="14"
       chamfer_steps="1"
       flexible="false"
       use_knot_distance="true"
       apply_no_radius="true"
       apply_with_radius="true"
       only_selected="false"
       hide_knots="false" />
    <inkscape:path-effect
       effect="fillet_chamfer"
       id="path-effect13152"
       is_visible="true"
       lpeversion="1"
       satellites_param="F,0,0,1,0,3.7041667,0,1 @ F,0,0,1,0,3.7041667,0,1 @ F,0,0,1,0,3.7041667,0,1"
       unit="px"
       method="auto"
       mode="F"
       radius="14"
       chamfer_steps="1"
       flexible="false"
       use_knot_distance="true"
       apply_no_radius="true"
       apply_with_radius="true"
       only_selected="false"
       hide_knots="false" />
    <inkscape:path-effect
       effect="fillet_chamfer"
       id="path-effect13146"
       is_visible="true"
       lpeversion="1"
       satellites_param="F,0,0,1,0,3.7041667,0,1 @ F,0,0,1,0,3.7041667,0,1 @ F,0,0,1,0,3.7041667,0,1"
       unit="px"
       method="auto"
       mode="F"
       radius="14"
       chamfer_steps="1"
       flexible="false"
       use_knot_distance="true"
       apply_no_radius="true"
       apply_with_radius="true"
       only_selected="false"
       hide_knots="false" />
    <inkscape:path-effect
       effect="fillet_chamfer"
       id="path-effect13140"
       is_visible="true"
       lpeversion="1"
       satellites_param="F,0,0,1,0,3.7041667,0,1 @ F,0,0,1,0,3.7041667,0,1 @ F,0,0,1,0,3.7041667,0,1 @ F,0,0,1,0,3.7041667,0,1"
       unit="px"
       method="auto"
       mode="F"
       radius="14"
       chamfer_steps="1"
       flexible="false"
       use_knot_distance="true"
       apply_no_radius="true"
       apply_with_radius="true"
       only_selected="false"
       hide_knots="false" />
    <inkscape:path-effect
       effect="fillet_chamfer"
       id="path-effect13134"
       is_visible="true"
       lpeversion="1"
       satellites_param="F,0,0,1,0,3.7041667,0,1 @ F,0,0,1,0,3.7041667,0,1 @ F,0,0,1,0,3.7041667,0,1"
       unit="px"
       method="auto"
       mode="F"
       radius="14"
       chamfer_steps="1"
       flexible="false"
       use_knot_distance="true"
       apply_no_radius="true"
       apply_with_radius="true"
       only_selected="false"
       hide_knots="false" />
    <inkscape:path-effect
       effect="fillet_chamfer"
       id="path-effect13128"
       is_visible="true"
       lpeversion="1"
       satellites_param="F,0,0,1,0,3.7041667,0,1 @ F,0,0,1,0,3.7041667,0,1 @ F,0,0,1,0,3.7041667,0,1"
       unit="px"
       method="auto"
       mode="F"
       radius="14"
       chamfer_steps="1"
       flexible="false"
       use_knot_distance="true"
       apply_no_radius="true"
       apply_with_radius="true"
       only_selected="false"
       hide_knots="false" />
    <inkscape:path-effect
       effect="fillet_chamfer"
       id="path-effect13122"
       is_visible="true"
       lpeversion="1"
       satellites_param="F,0,0,1,0,3.7041667,0,1 @ F,0,0,1,0,3.7041667,0,1 @ F,0,0,1,0,3.7041667,0,1"
       unit="px"
       method="auto"
       mode="F"
       radius="14"
       chamfer_steps="1"
       flexible="false"
       use_knot_distance="true"
       apply_no_radius="true"
       apply_with_radius="true"
       only_selected="false"
       hide_knots="false" />
    <inkscape:path-effect
       effect="fillet_chamfer"
       id="path-effect13116"
       is_visible="true"
       lpeversion="1"
       satellites_param="F,0,0,1,0,3.7041667,0,1 @ F,0,0,1,0,3.7041667,0,1 @ F,0,0,1,0,3.7041667,0,1"
       unit="px"
       method="auto"
       mode="F"
       radius="14"
       chamfer_steps="1"
       flexible="false"
       use_knot_distance="true"
       apply_no_radius="true"
       apply_with_radius="true"
       only_selected="false"
       hide_knots="false" />
    <inkscape:path-effect
       effect="fillet_chamfer"
       id="path-effect13110"
       is_visible="true"
       lpeversion="1"
       satellites_param="F,0,0,1,0,3.7041667,0,1 @ F,0,0,1,0,3.7041667,0,1 @ F,0,0,1,0,3.7041667,0,1"
       unit="px"
       method="auto"
       mode="F"
       radius="14"
       chamfer_steps="1"
       flexible="false"
       use_knot_distance="true"
       apply_no_radius="true"
       apply_with_radius="true"
       only_selected="false"
       hide_knots="false" />
    <inkscape:path-effect
       effect="fillet_chamfer"
       id="path-effect13104"
       is_visible="true"
       lpeversion="1"
       satellites_param="F,0,0,1,0,3.7041667,0,1 @ F,0,0,1,0,3.7041667,0,1 @ F,0,0,1,0,3.7041667,0,1"
       unit="px"
       method="auto"
       mode="F"
       radius="14"
       chamfer_steps="1"
       flexible="false"
       use_knot_distance="true"
       apply_no_radius="true"
       apply_with_radius="true"
       only_selected="false"
       hide_knots="false" />
    <inkscape:path-effect
       effect="fillet_chamfer"
       id="path-effect13098"
       is_visible="true"
       lpeversion="1"
       satellites_param="F,0,0,1,0,3.7041667,0,1 @ F,0,0,1,0,3.7041667,0,1 @ F,0,0,1,0,3.7041667,0,1"
       unit="px"
       method="auto"
       mode="F"
       radius="14"
       chamfer_steps="1"
       flexible="false"
       use_knot_distance="true"
       apply_no_radius="true"
       apply_with_radius="true"
       only_selected="false"
       hide_knots="false" />
    <inkscape:path-effect
       effect="fillet_chamfer"
       id="path-effect13092"
       is_visible="true"
       lpeversion="1"
       satellites_param="F,0,0,1,0,3.7041667,0,1 @ F,0,0,1,0,3.7041667,0,1 @ F,0,0,1,0,3.7041667,0,1"
       unit="px"
       method="auto"
       mode="F"
       radius="14"
       chamfer_steps="1"
       flexible="false"
       use_knot_distance="true"
       apply_no_radius="true"
       apply_with_radius="true"
       only_selected="false"
       hide_knots="false" />
    <inkscape:path-effect
       effect="fillet_chamfer"
       id="path-effect6904"
       is_visible="true"
       lpeversion="1"
       satellites_param="F,0,0,1,0,3.7041667,0,1 @ F,0,0,1,0,3.7041667,0,1 @ F,0,0,1,0,3.7041667,0,1"
       unit="px"
       method="auto"
       mode="F"
       radius="14"
       chamfer_steps="1"
       flexible="false"
       use_knot_distance="true"
       apply_no_radius="true"
       apply_with_radius="true"
       only_selected="false"
       hide_knots="false" />
    <inkscape:path-effect
       effect="fillet_chamfer"
       id="path-effect6898"
       is_visible="true"
       lpeversion="1"
       satellites_param="F,0,0,1,0,3.7041667,0,1 @ F,0,0,1,0,3.7041667,0,1 @ F,0,0,1,0,3.7041667,0,1"
       unit="px"
       method="auto"
       mode="F"
       radius="14"
       chamfer_steps="1"
       flexible="false"
       use_knot_distance="true"
       apply_no_radius="true"
       apply_with_radius="true"
       only_selected="false"
       hide_knots="false" />
    <inkscape:path-effect
       effect="fillet_chamfer"
       id="path-effect6892"
       is_visible="true"
       lpeversion="1"
       satellites_param="F,0,0,1,0,3.7041667,0,1 @ F,0,0,1,0,3.7041667,0,1 @ F,0,0,1,0,3.7041667,0,1"
       unit="px"
       method="auto"
       mode="F"
       radius="14"
       chamfer_steps="1"
       flexible="false"
       use_knot_distance="true"
       apply_no_radius="true"
       apply_with_radius="true"
       only_selected="false"
       hide_knots="false" />
    <inkscape:path-effect
       effect="fillet_chamfer"
       id="path-effect6806"
       is_visible="true"
       lpeversion="1"
       satellites_param="F,0,0,1,0,3.7041667,0,1 @ F,0,0,1,0,3.7041667,0,1 @ F,0,0,1,0,3.7041667,0,1 | F,0,0,1,0,3.7041667,0,1 @ F,0,0,1,0,3.7041667,0,1 @ F,0,0,1,0,3.7041667,0,1 | F,0,0,1,0,3.7041667,0,1 @ F,0,0,1,0,3.7041667,0,1 @ F,0,0,1,0,3.7041667,0,1 @ F,0,0,1,0,3.7041667,0,1 | F,0,0,1,0,3.7041667,0,1 @ F,0,0,1,0,3.7041667,0,1 @ F,0,0,1,0,3.7041667,0,1 @ F,0,0,1,0,3.7041667,0,1 | F,0,0,1,0,3.7041667,0,1 @ F,0,0,1,0,3.7041667,0,1 @ F,0,0,1,0,3.7041667,0,1 | F,0,0,1,0,3.7041667,0,1 @ F,0,0,1,0,3.7041667,0,1 @ F,0,0,1,0,3.7041667,0,1"
       unit="px"
       method="auto"
       mode="F"
       radius="14"
       chamfer_steps="1"
       flexible="false"
       use_knot_distance="true"
       apply_no_radius="true"
       apply_with_radius="true"
       only_selected="false"
       hide_knots="false" />
    <inkscape:path-effect
       effect="fillet_chamfer"
       id="path-effect6790"
       is_visible="true"
       lpeversion="1"
       satellites_param="F,0,0,1,0,3.7041667,0,1 @ F,0,0,1,0,3.7041667,0,1 @ F,0,0,1,0,3.7041667,0,1 | F,0,0,1,0,3.7041667,0,1 @ F,0,0,1,0,3.7041667,0,1 @ F,0,0,1,0,3.7041667,0,1 | F,0,0,1,0,3.7041667,0,1 @ F,0,0,1,0,3.7041667,0,1 @ F,0,0,1,0,3.7041667,0,1 | F,0,0,1,0,3.7041667,0,1 @ F,0,0,1,0,3.7041667,0,1 @ F,0,0,1,0,3.7041667,0,1 @ F,0,0,1,0,3.7041667,0,1 | F,0,0,1,0,3.7041667,0,1 @ F,0,0,1,0,3.7041667,0,1 @ F,0,0,1,0,3.7041667,0,1 | F,0,0,1,0,3.7041667,0,1 @ F,0,0,1,0,3.7041667,0,1 @ F,0,0,1,0,3.7041667,0,1 | F,0,0,1,0,3.7041667,0,1 @ F,0,0,1,0,3.7041667,0,1 @ F,0,0,1,0,3.7041667,0,1 | F,0,0,1,0,3.7041667,0,1 @ F,0,0,1,0,3.7041667,0,1 @ F,0,0,1,0,3.7041667,0,1"
       unit="px"
       method="auto"
       mode="F"
       radius="14"
       chamfer_steps="1"
       flexible="false"
       use_knot_distance="true"
       apply_no_radius="true"
       apply_with_radius="true"
       only_selected="false"
       hide_knots="false" />
    <inkscape:path-effect
       effect="fillet_chamfer"
       id="path-effect6764"
       is_visible="true"
       lpeversion="1"
       satellites_param="F,0,0,1,0,3.7041667,0,1 @ F,0,0,1,0,3.7041667,0,1 @ F,0,0,1,0,3.7041667,0,1 | F,0,0,1,0,3.7041667,0,1 @ F,0,0,1,0,3.7041667,0,1 @ F,0,0,1,0,3.7041667,0,1 | F,0,0,1,0,3.7041667,0,1 @ F,0,0,1,0,3.7041667,0,1 @ F,0,0,1,0,3.7041667,0,1 | F,0,0,1,0,3.7041667,0,1 @ F,0,0,1,0,3.7041667,0,1 @ F,0,0,1,0,3.7041667,0,1"
       unit="px"
       method="auto"
       mode="F"
       radius="14"
       chamfer_steps="1"
       flexible="false"
       use_knot_distance="true"
       apply_no_radius="true"
       apply_with_radius="true"
       only_selected="false"
       hide_knots="false" />
    <inkscape:path-effect
       effect="fillet_chamfer"
       id="path-effect6294"
       is_visible="true"
       lpeversion="1"
       satellites_param="F,0,0,1,0,2.1166667,0,1 @ F,0,0,1,0,2.1166667,0,1 @ F,0,0,1,0,2.1166667,0,1 | F,0,0,1,0,2.1166667,0,1 @ F,0,0,1,0,2.1166667,0,1 @ F,0,0,1,0,2.1166667,0,1 | F,0,0,1,0,2.1166667,0,1 @ F,0,0,1,0,2.1166667,0,1 @ F,0,0,1,0,2.1166667,0,1 | F,0,0,1,0,2.1166667,0,1 @ F,0,0,1,0,2.1166667,0,1 @ F,0,0,1,0,2.1166667,0,1"
       unit="px"
       method="auto"
       mode="F"
       radius="8"
       chamfer_steps="1"
       flexible="false"
       use_knot_distance="true"
       apply_no_radius="true"
       apply_with_radius="true"
       only_selected="false"
       hide_knots="false" />
    <inkscape:path-effect
       effect="bounding_box"
       id="path-effect6292"
       is_visible="true"
       lpeversion="1"
       linkedpath=""
       visualbounds="false" />
    <inkscape:path-effect
       effect="pts2ellipse"
       id="path-effect6290"
       is_visible="true"
       lpeversion="1"
       method="auto"
       gen_arc="false"
       arc_other="false"
       slice_arc="false"
       gen_isometric_frame="false"
       draw_axes="false"
       gen_perspective_frame="false"
       draw_perspective_axes="false"
       rot_axes="0"
       draw_ori_path="false" />
  </defs>
  <g
     inkscape:label="Layer 1"
     inkscape:groupmode="layer"
     id="layer1">
    <path
       id="circle6641"
       style="opacity:0.349594;fill:#ff00ff;stroke:none;stroke-width:0.892352;stroke-linecap:round;stroke-linejoin:round;paint-order:stroke fill markers"
       d="m 387.65372,303.54477 v 42.53383 a 3.7041667,3.7041667 45 0 0 3.70417,3.70417 h 42.53382 c 2.04576,0 3.65721,-1.66026 3.43843,-3.69385 -2.60329,-24.19757 -21.785,-43.37929 -45.98257,-45.98258 -2.03359,-0.21878 -3.69385,1.39267 -3.69385,3.43843 z m -7.48208,-3.40422 c -24.17306,2.6153 -43.33318,21.77543 -45.94848,45.94849 -0.22,2.03346 1.39046,3.69369 3.43622,3.69369 h 42.50178 a 3.7041667,3.7041667 135 0 0 3.70417,-3.70417 l 0,-42.50179 c 0,-2.04576 -1.66023,-3.65622 -3.69369,-3.43622 z m -45.94848,57.12425 c 2.61528,24.17307 21.77541,43.33322 45.94848,45.94852 2.03346,0.22 3.69369,-1.39046 3.69369,-3.43622 v -42.50182 a 3.7041667,3.7041667 45 0 0 -3.70417,-3.70417 h -42.50178 c -2.04576,0 -3.65622,1.66023 -3.43622,3.69369 z m 53.43056,0.0105 0,42.50182 c 0,2.04576 1.66023,3.65622 3.69369,3.43622 24.17308,-2.61529 43.33323,-21.77544 45.94851,-45.94852 0.22,-2.03346 -1.39046,-3.69369 -3.43622,-3.69369 h -42.50181 a 3.7041667,3.7041667 135 0 0 -3.70417,3.70417 z"
       inkscape:path-effect="#path-effect6764"
       inkscape:original-d="m 387.65372,299.8406 v 49.94217 h 49.94216 A 51.87529,51.87529 0 0 0 387.65372,299.8406 Z m -3.78839,0.032 a 51.87529,51.87529 0 0 0 -49.91012,49.91013 h 49.91012 z m -49.91012,53.69851 a 51.87529,51.87529 0 0 0 49.91012,49.91016 v -49.91016 z m 53.69851,0 v 49.91016 a 51.87529,51.87529 0 0 0 49.91015,-49.91016 z" />
    <g
       id="g1022">
      <path
         id="path67582"
         style="fill:#9c9c9c;fill-opacity:1;stroke:none;stroke-width:1.31736;stroke-linecap:round;stroke-linejoin:round;stroke-miterlimit:4;stroke-dasharray:none;stroke-dashoffset:0;stroke-opacity:1;paint-order:stroke fill markers"
         d="m 92.135372,117.8392 c -2.104137,2.10398 -4.028042,4.38797 -5.74725,6.82755 -1.719206,2.43957 -3.233764,5.03467 -4.518695,7.7605 -1.284929,2.72582 -2.340374,5.58242 -3.141681,8.54514 -0.400655,1.48137 -0.737808,2.98936 -1.008271,4.52069 -0.135276,0.76567 -0.25386,1.53712 -0.355376,2.31412 -0.04814,0.368 -0.0795,0.74125 -0.119877,1.11164 a 3.1161161,3.1161161 0 0 0 -0.03375,0.31407 3.1161161,3.1161161 0 0 0 -0.01521,0.22671 3.1161161,3.1161161 0 0 0 0.441631,1.58893 3.1161161,3.1161161 0 0 0 0.677268,0.79828 3.1161161,3.1161161 0 0 0 0.02035,0.0159 3.1161161,3.1161161 0 0 0 0.911149,0.52327 3.1161161,3.1161161 0 0 0 0.01713,0.005 3.1161161,3.1161161 0 0 0 1.043837,0.18478 3.1161161,3.1161161 0 0 0 0.0045,0 h 0.451295 2.159311 39.994177 c 1.10193,0 2.09466,-0.44751 2.81054,-1.16999 0.7225,-0.71586 1.16996,-1.70861 1.16996,-2.81055 v -39.99409 -2.15935 -0.45125 a 3.1161161,3.1161161 0 0 1 0,-7e-5 3.1161161,3.1161161 0 0 1 0,-6e-5 3.1161161,3.1161161 0 0 0 0,-0.004 3.1161161,3.1161161 0 0 0 -0.18477,-1.04386 3.1161161,3.1161161 0 0 0 -0.005,-0.0171 3.1161161,3.1161161 0 0 0 -0.52331,-0.91113 3.1161161,3.1161161 0 0 0 -0.0157,-0.0202 3.1161161,3.1161161 0 0 0 -0.79826,-0.67726 3.1161161,3.1161161 0 0 0 -1.58892,-0.44166 3.1161161,3.1161161 0 0 0 -0.22671,0.0154 3.1161161,3.1161161 0 0 0 -0.31408,0.0339 c -0.37041,0.0405 -0.74363,0.0718 -1.11164,0.11986 -0.77702,0.10156 -1.54845,0.2201 -2.31415,0.35537 -1.5313,0.2705 -3.03933,0.60762 -4.52068,1.00829 -2.9627,0.80131 -5.81931,1.85673 -8.54512,3.14168 -2.72586,1.28494 -5.32093,2.7995 -7.760505,4.51871 -2.439578,1.71922 -4.723577,3.64312 -6.827575,5.74725 -0.0045,0.004 -0.0065,0.008 -0.01066,0.0114 -0.0045,0.004 -0.0079,0.007 -0.01119,0.0108 z" />
      <path
         id="path67584"
         style="fill:#2b9747;fill-opacity:1;stroke:none;stroke-width:1.31736;stroke-linecap:round;stroke-linejoin:round;stroke-miterlimit:4;stroke-dasharray:none;stroke-dashoffset:0;stroke-opacity:1;paint-order:stroke fill markers"
         d="m 165.51884,117.81709 c -2.10395,-2.10414 -4.38795,-4.02804 -6.82753,-5.74726 -2.43958,-1.71921 -5.03469,-3.23376 -7.76051,-4.5187 -2.72581,-1.28495 -5.58241,-2.34037 -8.54516,-3.14169 -1.48135,-0.40066 -2.98934,-0.73778 -4.52068,-1.00829 -0.76565,-0.13526 -1.53713,-0.25381 -2.31411,-0.35537 -0.368,-0.0481 -0.74127,-0.0795 -1.11163,-0.11986 a 3.1161161,3.1161161 0 0 0 -0.31408,-0.034 3.1161161,3.1161161 0 0 0 -0.22671,-0.0154 3.1161161,3.1161161 0 0 0 -1.58893,0.44165 3.1161161,3.1161161 0 0 0 -0.7983,0.67725 3.1161161,3.1161161 0 0 0 -0.0157,0.0202 3.1161161,3.1161161 0 0 0 -0.52326,0.91114 3.1161161,3.1161161 0 0 0 -0.005,0.0171 3.1161161,3.1161161 0 0 0 -0.18476,1.04384 3.1161161,3.1161161 0 0 0 0,0.004 v 0.45126 2.15933 39.99415 c 0,1.10194 0.4475,2.09469 1.17,2.81055 0.71589,0.72249 1.70862,1.17 2.81054,1.17 h 39.99418 2.15931 0.45125 a 3.1161161,3.1161161 0 0 0 0.005,0 3.1161161,3.1161161 0 0 0 1.04383,-0.18478 3.1161161,3.1161161 0 0 0 0.0171,-0.005 3.1161161,3.1161161 0 0 0 0.91115,-0.52328 3.1161161,3.1161161 0 0 0 0.0203,-0.0159 3.1161161,3.1161161 0 0 0 0.67727,-0.79828 3.1161161,3.1161161 0 0 0 0.44167,-1.58893 3.1161161,3.1161161 0 0 0 -0.0152,-0.22671 3.1161161,3.1161161 0 0 0 -0.0337,-0.31407 c -0.0402,-0.37039 -0.0717,-0.74365 -0.11982,-1.11164 -0.10156,-0.777 -0.22015,-1.54845 -0.35538,-2.31412 -0.27051,-1.53134 -0.60762,-3.03933 -1.00832,-4.52069 -0.8013,-2.96273 -1.8567,-5.81932 -3.14168,-8.54514 -1.28493,-2.72583 -2.79949,-5.32094 -4.51869,-7.7605 -1.71921,-2.43958 -3.64311,-4.72359 -5.74725,-6.82755 -0.005,-0.004 -0.008,-0.007 -0.0115,-0.0108 -0.005,-0.004 -0.006,-0.008 -0.0107,-0.0114 z" />
      <path
         id="path67586"
         style="fill:#9c9c9c;fill-opacity:1;stroke:none;stroke-width:1.31736;stroke-linecap:round;stroke-linejoin:round;stroke-miterlimit:4;stroke-dasharray:none;stroke-dashoffset:0;stroke-opacity:1;paint-order:stroke fill markers"
         d="m 165.49336,191.15251 c 2.10413,-2.10399 4.02804,-4.38798 5.7472,-6.82755 1.71925,-2.43958 3.23381,-5.03469 4.51874,-7.76051 1.28493,-2.72582 2.34033,-5.58241 3.14168,-8.54514 0.40066,-1.48136 0.73781,-2.98935 1.00827,-4.52068 0.13528,-0.76568 0.25386,-1.53713 0.35538,-2.31413 0.0481,-0.368 0.0795,-0.74124 0.11988,-1.11164 a 3.1161161,3.1161161 0 0 0 0.0338,-0.31407 3.1161161,3.1161161 0 0 0 0.0152,-0.2267 3.1161161,3.1161161 0 0 0 -0.44167,-1.58894 3.1161161,3.1161161 0 0 0 -0.67722,-0.79828 3.1161161,3.1161161 0 0 0 -0.0204,-0.0159 3.1161161,3.1161161 0 0 0 -0.9111,-0.52328 3.1161161,3.1161161 0 0 0 -0.0171,-0.005 3.1161161,3.1161161 0 0 0 -1.04384,-0.18477 3.1161161,3.1161161 0 0 0 -0.005,0 h -0.4513 -2.15931 l -39.99418,2e-5 c -1.10192,-2e-5 -2.09465,0.44749 -2.81054,1.16998 -0.7225,0.71586 -1.17,1.70861 -1.17,2.81055 v 39.99416 2.15932 0.45128 a 3.1161161,3.1161161 0 0 1 0,5e-5 3.1161161,3.1161161 0 0 0 0,0.004 3.1161161,3.1161161 0 0 0 0.18481,1.04384 3.1161161,3.1161161 0 0 0 0.005,0.0171 3.1161161,3.1161161 0 0 0 0.52326,0.91114 3.1161161,3.1161161 0 0 0 0.0157,0.0202 3.1161161,3.1161161 0 0 0 0.7983,0.67725 3.1161161,3.1161161 0 0 0 1.58893,0.44166 3.1161161,3.1161161 0 0 0 0.22671,-0.0154 3.1161161,3.1161161 0 0 0 0.31407,-0.0339 c 0.37041,-0.0405 0.74364,-0.0718 1.11164,-0.11986 0.77698,-0.10156 1.54846,-0.22012 2.31411,-0.35538 1.53134,-0.27049 3.03933,-0.60761 4.52068,-1.00828 2.96275,-0.80133 5.81935,-1.85674 8.54516,-3.14169 2.72582,-1.28494 5.32093,-2.7995 7.76051,-4.51871 2.43958,-1.71921 4.72358,-3.64311 6.82753,-5.74724 0.005,-0.004 0.006,-0.008 0.0107,-0.0114 0.005,-0.004 0.008,-0.007 0.0115,-0.0108 z" />
      <path
         id="path67588"
         style="fill:#9c9c9c;fill-opacity:1;stroke:none;stroke-width:1.31736;stroke-linecap:round;stroke-linejoin:round;stroke-miterlimit:4;stroke-dasharray:none;stroke-dashoffset:0;stroke-opacity:1;paint-order:stroke fill markers"
         d="m 92.205068,191.17503 c 2.103998,2.10414 4.387996,4.02804 6.827576,5.74725 2.439576,1.71921 5.034646,3.23377 7.760506,4.51871 2.72581,1.28494 5.58242,2.34036 8.54512,3.14169 1.48135,0.40066 2.98934,0.73778 4.52068,1.00829 0.7657,0.13526 1.53713,0.2538 2.31415,0.35537 0.36796,0.0481 0.74123,0.0795 1.11164,0.11986 a 3.1161161,3.1161161 0 0 0 0.31407,0.034 3.1161161,3.1161161 0 0 0 0.22667,0.0154 3.1161161,3.1161161 0 0 0 1.58893,-0.44165 3.1161161,3.1161161 0 0 0 0.7983,-0.67726 3.1161161,3.1161161 0 0 0 0.0157,-0.0202 3.1161161,3.1161161 0 0 0 0.5233,-0.91114 3.1161161,3.1161161 0 0 0 0.005,-0.0171 3.1161161,3.1161161 0 0 0 0.18477,-1.04384 3.1161161,3.1161161 0 0 0 0,-0.004 v -0.45124 -2.15934 -39.99416 c 0,-1.10195 -0.44751,-2.09469 -1.16996,-2.81055 -0.71588,-0.72249 -1.70862,-1.16999 -2.81059,-1.16999 h -39.994127 -2.159359 -0.45125 a 3.1161161,3.1161161 0 0 0 -0.0045,0 3.1161161,3.1161161 0 0 0 -1.043882,0.18477 3.1161161,3.1161161 0 0 0 -0.01713,0.005 3.1161161,3.1161161 0 0 0 -0.911148,0.52327 3.1161161,3.1161161 0 0 0 -0.02035,0.0159 3.1161161,3.1161161 0 0 0 -0.677266,0.79828 3.1161161,3.1161161 0 0 0 -0.441631,1.58893 3.1161161,3.1161161 0 0 0 0.01521,0.2267 3.1161161,3.1161161 0 0 0 0.03377,0.31408 c 0.04024,0.37039 0.07177,0.74363 0.119877,1.11163 0.101558,0.777 0.220097,1.54846 0.355376,2.31413 0.270508,1.53133 0.607616,3.03932 1.00827,4.52068 0.801353,2.96274 1.85675,5.81933 3.141682,8.54515 1.284931,2.72583 2.799534,5.32093 4.518695,7.76051 1.719253,2.43958 3.643112,4.72357 5.747295,6.82755 0.0045,0.004 0.0079,0.007 0.01154,0.0108 0.0045,0.004 0.0065,0.008 0.01066,0.0114 z" />
    </g>
    <path
       id="rect1102"
       style="opacity:0.453252;fill:#ffffff;stroke:none;stroke-width:0.999999;stroke-linecap:round;stroke-linejoin:round;paint-order:stroke fill markers"
       d="M 153.35742 318.83789 L 153.35742 830.55859 L 765.21094 830.55859 L 765.21094 318.83789 L 153.35742 318.83789 z M 486.82617 387.86133 L 486.83789 387.86523 C 486.85679 387.86387 486.87381 387.86387 486.89648 387.86523 C 486.91652 387.86701 486.9324 387.86196 486.95508 387.86328 C 498.2014 387.86294 509.44801 388.82482 520.5625 390.75 C 531.67699 392.67518 542.6599 395.56318 553.37891 399.41406 C 564.09776 403.2648 574.55388 408.0791 584.61328 413.85547 C 589.64304 416.74363 594.57333 419.87266 599.38867 423.24219 C 601.79657 424.92703 604.17541 426.67138 606.52344 428.47656 C 607.63541 429.33164 608.71627 430.24722 609.81445 431.12891 A 11.777447 11.777447 0 0 1 610.74414 431.87695 A 11.777447 11.777447 0 0 1 611.39062 432.44141 A 11.777447 11.777447 0 0 1 614.45703 437.86914 A 11.777447 11.777447 0 0 1 614.78125 441.8125 A 11.777447 11.777447 0 0 1 614.76953 441.9082 A 11.777447 11.777447 0 0 1 613.73242 445.74219 A 11.777447 11.777447 0 0 1 613.69922 445.80078 A 11.777447 11.777447 0 0 1 611.40234 449.08398 A 11.777447 11.777447 0 0 1 611.39258 449.0957 A 11.777447 11.777447 0 0 1 611.39062 449.0957 L 610.18555 450.30078 L 604.41406 456.07227 L 497.5293 562.95703 C 494.58433 565.902 490.73467 567.36069 486.89062 567.3418 C 483.04655 567.35941 479.19884 565.90196 476.25391 562.95703 L 369.36719 456.07227 L 363.5957 450.30078 L 362.39062 449.0957 A 11.777447 11.777447 0 0 1 362.37891 449.08398 A 11.777447 11.777447 0 0 1 360.08203 445.80078 A 11.777447 11.777447 0 0 1 360.05078 445.74023 A 11.777447 11.777447 0 0 1 359.01367 441.9082 A 11.777447 11.777447 0 0 1 359.00195 441.81055 A 11.777447 11.777447 0 0 1 359.32422 437.86719 A 11.777447 11.777447 0 0 1 362.39062 432.44141 A 11.777447 11.777447 0 0 1 363.03711 431.875 A 11.777447 11.777447 0 0 1 363.9668 431.12695 C 365.06458 430.245 366.14567 429.33142 367.25781 428.47656 C 369.60567 426.67131 371.98477 424.925 374.39258 423.24023 C 379.20794 419.87052 384.14016 416.74175 389.16992 413.85352 C 399.2294 408.07707 409.68349 403.26296 420.40234 399.41211 C 431.12124 395.56126 442.10433 392.67518 453.21875 390.75 C 464.33324 388.82478 475.57985 387.86091 486.82617 387.86133 z M 342.97852 456.08203 A 11.777447 11.777447 0 0 1 344.96484 456.08594 A 11.777447 11.777447 0 0 1 345.0625 456.09766 A 11.777447 11.777447 0 0 1 348.89453 457.13477 A 11.777447 11.777447 0 0 1 348.95508 457.16797 A 11.777447 11.777447 0 0 1 352.23828 459.46484 A 11.777447 11.777447 0 0 1 352.25 459.47461 L 353.45703 460.68164 L 359.22656 466.45312 L 466.11328 573.33789 C 469.05833 576.28294 470.51499 580.13248 470.49609 583.97656 C 470.51371 587.82049 469.05825 591.66827 466.11328 594.61328 L 359.22656 701.5 L 353.45508 707.27148 L 352.25 708.47656 A 11.777447 11.777447 0 0 1 352.24023 708.48828 A 11.777447 11.777447 0 0 1 348.95508 710.7832 A 11.777447 11.777447 0 0 1 348.89648 710.81836 A 11.777447 11.777447 0 0 1 345.0625 711.85352 A 11.777447 11.777447 0 0 1 344.9668 711.86523 A 11.777447 11.777447 0 0 1 341.02344 711.54297 A 11.777447 11.777447 0 0 1 335.59766 708.47656 A 11.777447 11.777447 0 0 1 335.0332 707.83008 A 11.777447 11.777447 0 0 1 334.2832 706.89844 C 333.40113 705.80064 332.48765 704.71936 331.63281 703.60742 C 329.82765 701.25935 328.08331 698.88052 326.39844 696.47266 C 323.02883 691.65716 319.8999 686.72699 317.01172 681.69727 C 311.23539 671.63779 306.42108 661.18174 302.57031 650.46289 C 298.71941 639.74392 295.83145 628.76098 293.90625 617.64648 C 291.98104 606.53199 291.01915 595.28738 291.01953 584.04102 L 291.01562 584.0293 C 291.01345 584.00927 291.01892 583.99338 291.01758 583.9707 C 291.01801 583.95067 291.01696 583.93283 291.01562 583.91016 C 291.01509 572.66372 291.97725 561.4193 293.90234 550.30469 C 295.82768 539.19034 298.71556 528.20522 302.56641 517.48633 C 306.41722 506.76747 311.23144 496.31357 317.00781 486.25391 C 319.89603 481.22419 323.02495 476.29397 326.39453 471.47852 C 328.07927 469.07069 329.82377 466.69171 331.62891 464.34375 C 332.48383 463.2317 333.39892 462.15016 334.28125 461.05273 A 11.777447 11.777447 0 0 1 335.0293 460.12305 A 11.777447 11.777447 0 0 1 335.59375 459.47656 A 11.777447 11.777447 0 0 1 341.02148 456.41016 A 11.777447 11.777447 0 0 1 342.97852 456.08203 z M 631.04297 456.0918 A 11.777447 11.777447 0 0 1 633 456.41992 A 11.777447 11.777447 0 0 1 638.42773 459.48633 A 11.777447 11.777447 0 0 1 638.99219 460.13477 A 11.777447 11.777447 0 0 1 639.74023 461.06445 C 640.62219 462.1621 641.53567 463.24346 642.39062 464.35547 C 644.19569 466.70342 645.94024 469.08252 647.625 471.49023 C 650.9946 476.30573 654.12355 481.23592 657.01172 486.26562 C 662.7882 496.32522 667.6024 506.78111 671.45312 517.5 C 675.30393 528.21885 678.19197 539.20191 680.11719 550.31641 C 682.04237 561.4309 683.00444 572.67563 683.00391 583.92188 L 683.00977 583.9375 C 683.01166 583.95867 683.00517 583.97342 683.00781 583.99609 C 683.00702 584.01575 683.00708 584.03396 683.00977 584.05664 C 683.01026 595.30289 682.04826 606.54957 680.12305 617.66406 C 678.19787 628.77844 675.30983 639.76162 671.45898 650.48047 C 667.60829 661.19947 662.79601 671.65341 657.01953 681.71289 C 654.13144 686.74276 651.00046 691.67474 647.63086 696.49023 C 645.94598 698.89794 644.20162 701.27505 642.39648 703.62305 C 641.54163 704.7351 640.62854 705.81675 639.74609 706.91406 A 11.777447 11.777447 0 0 1 638.99609 707.84375 A 11.777447 11.777447 0 0 1 638.43164 708.49023 A 11.777447 11.777447 0 0 1 633.00391 711.55664 A 11.777447 11.777447 0 0 1 629.06055 711.88086 A 11.777447 11.777447 0 0 1 628.96484 711.86914 A 11.777447 11.777447 0 0 1 625.13086 710.83203 A 11.777447 11.777447 0 0 1 625.07227 710.79883 A 11.777447 11.777447 0 0 1 621.78906 708.50195 A 11.777447 11.777447 0 0 1 621.77344 708.48828 L 620.56836 707.28125 L 614.79688 701.50977 L 507.91016 594.625 C 504.96526 591.68007 503.50845 587.83045 503.52734 583.98633 C 503.50958 580.14228 504.96519 576.29458 507.91016 573.34961 L 614.79688 466.46289 L 620.56836 460.69141 L 621.77344 459.48633 A 11.777447 11.777447 0 0 1 621.78516 459.47461 A 11.777447 11.777447 0 0 1 625.06836 457.17969 A 11.777447 11.777447 0 0 1 625.12695 457.14453 A 11.777447 11.777447 0 0 1 628.96094 456.10938 A 11.777447 11.777447 0 0 1 629.05664 456.09766 A 11.777447 11.777447 0 0 1 631.04297 456.0918 z M 486.875 600.36133 C 490.71912 600.34372 494.56882 601.80112 497.51367 604.74609 L 604.40039 711.63086 L 610.16992 717.40234 L 611.37695 718.60938 A 11.777447 11.777447 0 0 1 611.39062 718.62305 A 11.777447 11.777447 0 0 1 613.6875 721.90625 A 11.777447 11.777447 0 0 1 613.7207 721.9668 A 11.777447 11.777447 0 0 1 614.75781 725.79883 A 11.777447 11.777447 0 0 1 614.76953 725.89648 A 11.777447 11.777447 0 0 1 614.44531 729.83984 A 11.777447 11.777447 0 0 1 611.37891 735.26758 A 11.777447 11.777447 0 0 1 610.73242 735.83203 A 11.777447 11.777447 0 0 1 609.80273 736.58203 C 608.7049 737.46402 607.62377 738.37749 606.51172 739.23242 C 604.16384 741.03768 601.78481 742.78203 599.37695 744.4668 C 594.56161 747.83651 589.63132 750.96531 584.60156 753.85352 C 574.54197 759.62988 564.08604 764.44411 553.36719 768.29492 C 542.64837 772.14577 531.66539 775.03388 520.55078 776.95898 C 509.43648 778.88431 498.19164 779.84608 486.94531 779.8457 L 486.93164 779.83984 C 486.91199 779.84064 486.89377 779.84054 486.87109 779.83789 C 486.84993 779.83596 486.83518 779.84253 486.8125 779.83984 C 475.56629 779.84034 464.31957 778.87834 453.20508 776.95312 C 442.09058 775.02792 431.10756 772.13987 420.38867 768.28906 C 409.66982 764.43833 399.21588 759.62413 389.15625 753.84766 C 384.12649 750.95953 379.19433 747.83061 374.37891 744.46094 C 371.9712 742.77621 369.59402 741.03163 367.24609 739.22656 C 366.13416 738.37152 365.05129 737.4579 363.95312 736.57617 A 11.777447 11.777447 0 0 1 363.02344 735.82617 A 11.777447 11.777447 0 0 1 362.37695 735.26172 A 11.777447 11.777447 0 0 1 359.31055 729.83594 A 11.777447 11.777447 0 0 1 358.98828 725.89258 A 11.777447 11.777447 0 0 1 359 725.79688 A 11.777447 11.777447 0 0 1 360.03711 721.96289 A 11.777447 11.777447 0 0 1 360.06836 721.9043 A 11.777447 11.777447 0 0 1 362.36523 718.61914 A 11.777447 11.777447 0 0 1 362.375 718.60938 L 363.58203 717.40234 L 369.35156 711.63086 L 476.23828 604.74609 C 479.18325 601.80112 483.03096 600.34243 486.875 600.36133 z "
       transform="scale(0.26458333)" />
    <g
       id="g5990"
       transform="translate(-5.9868374,-59.868374)">
      <path
         id="path5878"
         style="fill:#9c9c9c;fill-opacity:1;stroke:none;stroke-width:1.31736;stroke-linecap:round;stroke-linejoin:round;stroke-miterlimit:4;stroke-dasharray:none;stroke-dashoffset:0;stroke-opacity:1;paint-order:stroke fill markers"
         d="m 435.64585,20.42578 c -2.10414,2.10398 -4.02804,4.38797 -5.74725,6.82755 -1.7192,2.43957 -3.23376,5.03467 -4.51869,7.7605 -1.28493,2.72582 -2.34038,5.58242 -3.14168,8.54514 -0.40066,1.48137 -0.73781,2.98936 -1.00827,4.52069 -0.13528,0.76567 -0.25387,1.53712 -0.35538,2.31412 -0.0481,0.368 -0.0795,0.74125 -0.11988,1.11164 a 3.1161161,3.1161161 0 0 0 -0.0337,0.31407 3.1161161,3.1161161 0 0 0 -0.0152,0.22671 3.1161161,3.1161161 0 0 0 0.44163,1.58893 3.1161161,3.1161161 0 0 0 0.67727,0.79828 3.1161161,3.1161161 0 0 0 0.0204,0.0159 3.1161161,3.1161161 0 0 0 0.91115,0.52327 3.1161161,3.1161161 0 0 0 0.0171,0.005 3.1161161,3.1161161 0 0 0 1.04384,0.18478 3.1161161,3.1161161 0 0 0 0.005,0 h 0.45129 2.15931 39.99418 c 1.10193,0 2.09466,-0.44751 2.81054,-1.16999 0.7225,-0.71586 1.16996,-1.70861 1.16996,-2.81055 V 11.18773 9.02838 8.57713 a 3.1161161,3.1161161 0 0 1 0,-7e-5 3.1161161,3.1161161 0 0 1 0,-6e-5 3.1161161,3.1161161 0 0 0 0,-0.004 3.1161161,3.1161161 0 0 0 -0.18477,-1.04386 3.1161161,3.1161161 0 0 0 -0.005,-0.0171 3.1161161,3.1161161 0 0 0 -0.52331,-0.91113 3.1161161,3.1161161 0 0 0 -0.0157,-0.0202 3.1161161,3.1161161 0 0 0 -0.79826,-0.67726 3.1161161,3.1161161 0 0 0 -1.58892,-0.44166 3.1161161,3.1161161 0 0 0 -0.22671,0.0154 3.1161161,3.1161161 0 0 0 -0.31408,0.0339 c -0.37041,0.0405 -0.74363,0.0718 -1.11164,0.11986 -0.77702,0.10156 -1.54845,0.2201 -2.31415,0.35537 -1.5313,0.2705 -3.03933,0.60762 -4.52068,1.00829 -2.9627,0.80131 -5.81931,1.85673 -8.54512,3.14168 -2.72586,1.28494 -5.32093,2.7995 -7.76051,4.51871 -2.43957,1.71922 -4.72357,3.64312 -6.82757,5.74725 -0.005,0.004 -0.007,0.008 -0.0107,0.0114 -0.005,0.004 -0.008,0.007 -0.0112,0.0108 z" />
      <path
         id="path5880"
         style="fill:#2b9747;fill-opacity:1;stroke:none;stroke-width:1.31736;stroke-linecap:round;stroke-linejoin:round;stroke-miterlimit:4;stroke-dasharray:none;stroke-dashoffset:0;stroke-opacity:1;paint-order:stroke fill markers"
         d="m 509.02932,20.40367 c -2.10395,-2.10414 -4.38795,-4.02804 -6.82753,-5.74726 -2.43958,-1.71921 -5.03469,-3.23376 -7.76051,-4.5187 -2.72581,-1.28495 -5.58241,-2.34037 -8.54516,-3.14169 -1.48135,-0.40066 -2.98934,-0.73778 -4.52068,-1.00829 -0.76565,-0.13526 -1.53713,-0.25381 -2.31411,-0.35537 -0.368,-0.0481 -0.74127,-0.0795 -1.11163,-0.11986 a 3.1161161,3.1161161 0 0 0 -0.31408,-0.034 3.1161161,3.1161161 0 0 0 -0.22671,-0.0154 3.1161161,3.1161161 0 0 0 -1.58893,0.44165 3.1161161,3.1161161 0 0 0 -0.7983,0.67725 3.1161161,3.1161161 0 0 0 -0.0157,0.0202 3.1161161,3.1161161 0 0 0 -0.52326,0.91114 3.1161161,3.1161161 0 0 0 -0.005,0.0171 3.1161161,3.1161161 0 0 0 -0.18476,1.04384 3.1161161,3.1161161 0 0 0 0,0.004 v 0.45126 2.15933 39.99415 c 0,1.10194 0.4475,2.09469 1.17,2.81055 0.71589,0.72249 1.70862,1.17 2.81054,1.17 h 39.99418 2.15931 0.45125 a 3.1161161,3.1161161 0 0 0 0.005,0 3.1161161,3.1161161 0 0 0 1.04383,-0.18478 3.1161161,3.1161161 0 0 0 0.0171,-0.005 3.1161161,3.1161161 0 0 0 0.91115,-0.52328 3.1161161,3.1161161 0 0 0 0.0203,-0.0159 3.1161161,3.1161161 0 0 0 0.67727,-0.79828 3.1161161,3.1161161 0 0 0 0.44167,-1.58893 3.1161161,3.1161161 0 0 0 -0.0152,-0.22671 3.1161161,3.1161161 0 0 0 -0.0337,-0.31407 c -0.0402,-0.37039 -0.0717,-0.74365 -0.11982,-1.11164 -0.10156,-0.777 -0.22015,-1.54845 -0.35538,-2.31412 -0.27051,-1.53134 -0.60762,-3.03933 -1.00832,-4.52069 -0.8013,-2.96273 -1.8567,-5.81932 -3.14168,-8.54514 -1.28493,-2.72583 -2.79949,-5.32094 -4.51869,-7.7605 -1.71921,-2.43958 -3.64311,-4.72359 -5.74725,-6.82755 -0.005,-0.004 -0.008,-0.007 -0.0115,-0.0108 -0.005,-0.004 -0.006,-0.008 -0.0107,-0.0114 z" />
      <path
         id="path5882"
         style="fill:#9c9c9c;fill-opacity:1;stroke:none;stroke-width:1.31736;stroke-linecap:round;stroke-linejoin:round;stroke-miterlimit:4;stroke-dasharray:none;stroke-dashoffset:0;stroke-opacity:1;paint-order:stroke fill markers"
         d="m 509.00384,93.73909 c 2.10413,-2.10399 4.02804,-4.38798 5.7472,-6.82755 1.71925,-2.43958 3.23381,-5.03469 4.51874,-7.76051 1.28493,-2.72582 2.34033,-5.58241 3.14168,-8.54514 0.40066,-1.48136 0.73781,-2.98935 1.00827,-4.52068 0.13528,-0.76568 0.25386,-1.53713 0.35538,-2.31413 0.0481,-0.368 0.0795,-0.74124 0.11988,-1.11164 a 3.1161161,3.1161161 0 0 0 0.0338,-0.31407 3.1161161,3.1161161 0 0 0 0.0152,-0.2267 3.1161161,3.1161161 0 0 0 -0.44167,-1.58894 3.1161161,3.1161161 0 0 0 -0.67722,-0.79828 3.1161161,3.1161161 0 0 0 -0.0204,-0.0159 3.1161161,3.1161161 0 0 0 -0.9111,-0.52328 3.1161161,3.1161161 0 0 0 -0.0171,-0.005 3.1161161,3.1161161 0 0 0 -1.04384,-0.18477 3.1161161,3.1161161 0 0 0 -0.005,0 h -0.4513 -2.15931 l -39.99418,2e-5 c -1.10192,-2e-5 -2.09465,0.44749 -2.81054,1.16998 -0.7225,0.71586 -1.17,1.70861 -1.17,2.81055 v 39.99416 2.15932 0.45128 a 3.1161161,3.1161161 0 0 1 0,5e-5 3.1161161,3.1161161 0 0 0 0,0.004 3.1161161,3.1161161 0 0 0 0.18481,1.04384 3.1161161,3.1161161 0 0 0 0.005,0.0171 3.1161161,3.1161161 0 0 0 0.52326,0.91114 3.1161161,3.1161161 0 0 0 0.0157,0.0202 3.1161161,3.1161161 0 0 0 0.7983,0.67725 3.1161161,3.1161161 0 0 0 1.58893,0.44166 3.1161161,3.1161161 0 0 0 0.22671,-0.0154 3.1161161,3.1161161 0 0 0 0.31407,-0.0339 c 0.37041,-0.0405 0.74364,-0.0718 1.11164,-0.11986 0.77698,-0.10156 1.54846,-0.22012 2.31411,-0.35538 1.53134,-0.27049 3.03933,-0.60761 4.52068,-1.00828 2.96275,-0.80133 5.81935,-1.85674 8.54516,-3.14169 2.72582,-1.28494 5.32093,-2.7995 7.76051,-4.51871 2.43958,-1.71921 4.72358,-3.64311 6.82753,-5.74724 0.005,-0.004 0.006,-0.008 0.0107,-0.0114 0.005,-0.004 0.008,-0.007 0.0115,-0.0108 z" />
      <path
         id="path5884"
         style="fill:#9c9c9c;fill-opacity:1;stroke:none;stroke-width:1.31736;stroke-linecap:round;stroke-linejoin:round;stroke-miterlimit:4;stroke-dasharray:none;stroke-dashoffset:0;stroke-opacity:1;paint-order:stroke fill markers"
         d="m 435.71555,93.76161 c 2.104,2.10414 4.38799,4.02804 6.82757,5.74725 2.43958,1.71921 5.03465,3.23377 7.76051,4.51871 2.72581,1.28494 5.58242,2.34036 8.54512,3.14169 1.48135,0.40066 2.98934,0.73778 4.52068,1.00829 0.7657,0.13526 1.53713,0.2538 2.31415,0.35537 0.36796,0.0481 0.74123,0.0795 1.11164,0.11986 a 3.1161161,3.1161161 0 0 0 0.31407,0.034 3.1161161,3.1161161 0 0 0 0.22667,0.0154 3.1161161,3.1161161 0 0 0 1.58893,-0.44165 3.1161161,3.1161161 0 0 0 0.7983,-0.67726 3.1161161,3.1161161 0 0 0 0.0157,-0.0202 3.1161161,3.1161161 0 0 0 0.5233,-0.91114 3.1161161,3.1161161 0 0 0 0.005,-0.0171 3.1161161,3.1161161 0 0 0 0.18477,-1.04384 3.1161161,3.1161161 0 0 0 0,-0.004 v -0.45124 -2.15934 -39.99416 c 0,-1.10195 -0.44751,-2.09469 -1.16996,-2.81055 -0.71588,-0.72249 -1.70862,-1.16999 -2.81059,-1.16999 h -39.99413 -2.15936 -0.45125 a 3.1161161,3.1161161 0 0 0 -0.005,0 3.1161161,3.1161161 0 0 0 -1.04388,0.18477 3.1161161,3.1161161 0 0 0 -0.0171,0.005 3.1161161,3.1161161 0 0 0 -0.91115,0.52327 3.1161161,3.1161161 0 0 0 -0.0204,0.0159 3.1161161,3.1161161 0 0 0 -0.67726,0.79828 3.1161161,3.1161161 0 0 0 -0.44163,1.58893 3.1161161,3.1161161 0 0 0 0.0152,0.2267 3.1161161,3.1161161 0 0 0 0.0338,0.31408 c 0.0402,0.37039 0.0718,0.74363 0.11987,1.11163 0.10156,0.777 0.2201,1.54846 0.35538,2.31413 0.27051,1.53133 0.60762,3.03932 1.00827,4.52068 0.80135,2.96274 1.85675,5.81933 3.14168,8.54515 1.28493,2.72583 2.79954,5.32093 4.5187,7.76051 1.71925,2.43958 3.64311,4.72357 5.74729,6.82755 0.005,0.004 0.008,0.007 0.0115,0.0108 0.005,0.004 0.007,0.008 0.0107,0.0114 z" />
    </g>
    <circle
       style="opacity:0.349594;fill:#ff00ff;stroke:none;stroke-width:0.892352;stroke-linecap:round;stroke-linejoin:round;paint-order:stroke fill markers"
       id="path6014"
       cx="466.36334"
       cy="-2.7859535"
       r="51.87529" />
    <circle
       style="opacity:0.349594;fill:#ff00ff;stroke:none;stroke-width:0.892352;stroke-linecap:round;stroke-linejoin:round;paint-order:stroke fill markers"
       id="circle6150"
       cx="386.87949"
       cy="188.14525"
       r="51.87529" />
    <rect
       style="opacity:0.349594;fill:#ff00ff;stroke:none;stroke-width:0.57013;stroke-linecap:round;stroke-linejoin:round;paint-order:stroke fill markers"
       id="rect6174"
       width="3.7887483"
       height="142.94386"
       x="384.98511"
       y="116.67332" />
    <rect
       style="opacity:0.349594;fill:#ff00ff;stroke:none;stroke-width:0.57013;stroke-linecap:round;stroke-linejoin:round;paint-order:stroke fill markers"
       id="rect6280"
       width="3.7887483"
       height="142.94386"
       x="186.25087"
       y="-458.35141"
       transform="rotate(90)" />
    <circle
       style="opacity:0.349594;fill:#ff00ff;stroke:none;stroke-width:0.892352;stroke-linecap:round;stroke-linejoin:round;paint-order:stroke fill markers"
       id="circle6376"
       cx="719.89734"
       cy="183.28094"
       r="51.87529" />
    <rect
       style="opacity:0.349594;fill:#ff00ff;stroke:none;stroke-width:0.57013;stroke-linecap:round;stroke-linejoin:round;paint-order:stroke fill markers"
       id="rect6378"
       width="3.7887483"
       height="142.94386"
       x="718.00299"
       y="111.80901" />
    <rect
       style="opacity:0.349594;fill:#ff00ff;stroke:none;stroke-width:0.57013;stroke-linecap:round;stroke-linejoin:round;paint-order:stroke fill markers"
       id="rect6380"
       width="3.7887483"
       height="142.94386"
       x="181.38657"
       y="-791.36926"
       transform="rotate(90)" />
    <rect
       style="opacity:0.349594;fill:#ff00ff;stroke:none;stroke-width:0.57013;stroke-linecap:round;stroke-linejoin:round;paint-order:stroke fill markers"
       id="rect6382"
       width="3.7887483"
       height="142.94386"
       x="-381.33942"
       y="-710.11542"
       transform="rotate(135)" />
    <rect
       style="opacity:0.349594;fill:#ff00ff;stroke:none;stroke-width:0.57013;stroke-linecap:round;stroke-linejoin:round;paint-order:stroke fill markers"
       id="rect6384"
       width="3.7887483"
       height="142.94386"
       x="-640.53784"
       y="307.97311"
       transform="rotate(-135)" />
    <circle
       style="opacity:0.349594;fill:#ff00ff;stroke:none;stroke-width:0.892352;stroke-linecap:round;stroke-linejoin:round;paint-order:stroke fill markers"
       id="circle6386"
       cx="554.13678"
       cy="184.40346"
       r="51.87529" />
    <rect
       style="opacity:0.349594;fill:#ff00ff;stroke:none;stroke-width:0.57013;stroke-linecap:round;stroke-linejoin:round;paint-order:stroke fill markers"
       id="rect6388"
       width="3.7887483"
       height="142.94386"
       x="552.24243"
       y="112.93154" />
    <rect
       style="opacity:0.349594;fill:#ff00ff;stroke:none;stroke-width:0.57013;stroke-linecap:round;stroke-linejoin:round;paint-order:stroke fill markers"
       id="rect6636"
       width="3.7887483"
       height="142.94386"
       x="115.47594"
       y="500.62637"
       transform="rotate(-60)" />
    <rect
       style="opacity:0.349594;fill:#ff00ff;stroke:none;stroke-width:0.57013;stroke-linecap:round;stroke-linejoin:round;paint-order:stroke fill markers"
       id="rect6638"
       width="3.7887483"
       height="142.94386"
       x="-438.66086"
       y="316.2229"
       transform="rotate(-120)" />
    <path
       id="circle6647"
       style="opacity:0.349594;fill:#ff00ff;stroke:none;stroke-width:0.892352;stroke-linecap:round;stroke-linejoin:round;paint-order:stroke fill markers"
       d="m 721.41758,293.79968 v 39.85441 a 1.5343154,1.5343154 22.499991 0 0 2.61924,1.08493 l 28.18324,-28.18326 c 1.44657,-1.44657 1.41195,-3.75997 -0.18178,-5.0419 -7.72458,-6.21338 -17.07119,-10.08411 -26.92696,-11.15132 -2.03343,-0.22019 -3.69374,1.39138 -3.69374,3.43714 z m -7.48283,-3.40762 c -9.85197,1.06011 -19.19722,4.92153 -26.92403,11.12488 -1.59492,1.28046 -1.6306,3.59274 -0.18403,5.03931 l 28.18274,28.18273 a 1.5343164,1.5343164 157.5 0 0 2.61924,-1.08493 l 0,-39.82237 c 0,-2.04576 -1.66034,-3.65845 -3.69392,-3.43962 z m -34.82725,19.02717 c -6.20329,7.72697 -10.06457,17.07239 -11.12449,26.92447 -0.21878,2.03359 1.39394,3.69393 3.4397,3.69393 h 39.82235 a 1.5343161,1.5343161 112.5 0 0 1.08493,-2.61924 l -28.18323,-28.18323 c -1.44657,-1.44657 -3.75883,-1.41087 -5.03926,0.18407 z m 75.79199,-0.18407 -28.18326,28.18323 a 1.5343151,1.5343151 67.500013 0 0 1.08493,2.61924 h 39.85442 c 2.04576,0 3.65733,-1.66031 3.43714,-3.69374 -1.06723,-9.85575 -4.93796,-19.20234 -11.15132,-26.92691 -1.28194,-1.59373 -2.42267,-2.80104 -2.42267,-2.80106 z m -86.91648,38.28532 c 1.05991,9.85209 4.92119,19.19752 11.12449,26.9245 1.28043,1.59494 3.59269,1.63064 5.03926,0.18407 l 28.18323,-28.18326 a 1.5343171,1.5343171 67.499987 0 0 -1.08493,-2.61924 h -39.82235 c -2.04576,0 -3.65848,1.66034 -3.4397,3.69393 z m 58.73322,-1.07469 28.18326,28.18326 c 1.44657,1.44657 3.75883,1.41087 5.03926,-0.18407 6.2033,-7.72698 10.06458,-17.07241 11.12449,-26.9245 0.21878,-2.03359 -1.39394,-3.69393 -3.4397,-3.69393 h -39.82238 a 1.5343161,1.5343161 112.5 0 0 -1.08493,2.61924 z m -11.7068,2.67943 -28.18274,28.18274 c -1.44657,1.44657 -1.41089,3.75884 0.18403,5.0393 7.72681,6.20335 17.07206,10.06476 26.92403,11.12487 2.03358,0.21882 3.69392,-1.39387 3.69392,-3.43963 v -39.82235 a 1.5343161,1.5343161 22.5 0 0 -2.61924,-1.08493 z m 6.40815,1.08493 v 39.82235 c 0,2.04576 1.66034,3.65845 3.69392,3.43963 9.85196,-1.06011 19.19721,-4.92152 26.92402,-11.12487 1.59492,-1.28045 1.6306,-3.59273 0.18403,-5.0393 l -28.18273,-28.18274 a 1.5343158,1.5343158 157.5 0 0 -2.61924,1.08493 z"
       inkscape:path-effect="#path-effect14026"
       inkscape:original-d="m 721.41758,290.09551 v 47.26275 l 33.42172,-33.42174 a 51.87529,51.87529 0 0 0 -33.42172,-13.84101 z m -3.78891,0.032 a 51.87529,51.87529 0 0 0 -33.42122,13.8095 l 33.42122,33.42121 z m -36.10115,16.48841 a 51.87529,51.87529 0 0 0 -13.80898,33.42171 h 47.23069 z m 75.99121,0 -33.42174,33.42171 h 47.26276 a 51.87529,51.87529 0 0 0 -13.84102,-33.42167 z m -89.80019,37.21063 a 51.87529,51.87529 0 0 0 13.80898,33.42174 l 33.42171,-33.42174 z m 56.37845,0 33.42174,33.42174 a 51.87529,51.87529 0 0 0 13.80898,-33.42174 z m -6.46832,2.67943 -33.42122,33.42122 a 51.87529,51.87529 0 0 0 33.42122,13.80947 z m 3.78891,0 v 47.23069 a 51.87529,51.87529 0 0 0 33.42121,-13.80947 z" />
    <path
       id="circle6657"
       style="opacity:0.349594;fill:#ff00ff;stroke:none;stroke-width:0.892352;stroke-linecap:round;stroke-linejoin:round;paint-order:stroke fill markers"
       d="m 555.28284,296.79344 v 41.14633 a 2.1386177,2.1386177 30.000186 0 0 3.20791,1.85211 l 35.63483,-20.57347 c 1.77168,-1.02286 2.33707,-3.26643 1.12965,-4.91733 -8.60684,-11.76803 -21.78377,-19.37546 -36.27865,-20.94473 -2.03344,-0.22015 -3.69374,1.39133 -3.69374,3.43709 z m -7.48255,-3.40423 c -14.48164,1.57324 -27.64601,9.1737 -36.2493,20.92855 -1.20798,1.65049 -0.64307,3.89377 1.1286,4.91664 l 35.60644,20.55742 a 2.1386004,2.1386004 150.00001 0 0 3.2079,-1.85209 v -41.11479 c 0,-2.04576 -1.66028,-3.65663 -3.69364,-3.43573 z m 48.22183,29.10909 -35.63694,20.57498 a 2.1386235,2.1386235 90.000275 0 0 -10e-6,3.70419 l 35.60648,20.55786 c 1.77167,1.02289 3.9993,0.39181 4.82763,-1.47827 2.41543,-5.45318 3.87246,-11.28254 4.3068,-17.23088 0.14896,-2.03989 0.15135,-5.36173 0.005,-7.40183 -0.42601,-5.95213 -1.87597,-11.7866 -4.28583,-17.24571 -0.82599,-1.87112 -3.05179,-2.50321 -4.82346,-1.48034 z m -90.06464,1.4959 c -2.41536,5.45302 -3.87237,11.28221 -4.30676,17.23037 -0.14897,2.03989 -0.14897,5.36175 0,7.40164 0.43439,5.94816 1.8914,11.77733 4.30676,17.23035 0.82833,1.87008 3.05597,2.50117 4.82764,1.4783 l 35.60644,-20.55739 a 2.1386024,2.1386024 90.00001 0 0 0,-3.70416 L 510.78512,322.5159 c -1.77167,-1.02287 -3.99931,-0.39178 -4.82764,1.4783 z m 42.32855,26.06472 -35.60644,20.55741 c -1.77167,1.02287 -2.33658,3.26615 -1.1286,4.91665 8.60329,11.75484 21.76766,19.3553 36.2493,20.92854 2.03336,0.2209 3.69364,-1.38997 3.69364,-3.43573 v -41.11478 a 2.1386008,2.1386008 29.999991 0 0 -3.2079,-1.85209 z m 6.99681,1.85209 v 41.11478 c 0,2.04576 1.66028,3.65663 3.69364,3.43573 14.48163,-1.57325 27.64601,-9.1737 36.24929,-20.92855 1.20798,-1.65049 0.64307,-3.89377 -1.1286,-4.91664 l -35.60643,-20.55741 a 2.1386006,2.1386006 150.00001 0 0 -3.2079,1.85209 z"
       inkscape:path-effect="#path-effect6806"
       inkscape:original-d="m 555.28284,293.08927 v 48.55467 l 42.05065,-24.27759 a 51.87529,51.87529 0 0 0 -42.05065,-24.27708 z m -3.78891,0.0315 a 51.87529,51.87529 0 0 0 -42.02224,24.26155 l 42.02224,24.26158 z m 47.73609,27.52545 -42.05274,24.27914 42.02226,24.26208 a 51.87529,51.87529 0 0 0 6.06423,-24.26208 51.87529,51.87529 0 0 0 -6.03375,-24.27914 z m -91.6528,0.0176 a 51.87529,51.87529 0 0 0 -6.06422,24.26157 51.87529,51.87529 0 0 0 6.06422,24.26155 l 42.02224,-24.26155 z m 43.91671,27.54302 -42.02224,24.26157 a 51.87529,51.87529 0 0 0 42.02224,24.26155 z m 3.78891,0 v 48.52312 a 51.87529,51.87529 0 0 0 42.02223,-24.26155 z" />
    <path
       style="opacity:1;fill:#9c9c9c;fill-opacity:1;stroke:none;stroke-width:0.892352;stroke-linecap:round;stroke-linejoin:round;paint-order:stroke fill markers"
       inkscape:path-effect="#path-effect6892"
       inkscape:original-d="m 408.98183,501.37116 v 49.91016 a 51.87529,51.87529 0 0 0 49.91015,-49.91016 z"
       d="m 408.98183,505.07533 v 42.50182 c 0,2.04576 1.66023,3.65622 3.69369,3.43622 24.17308,-2.61529 43.33323,-21.77544 45.94851,-45.94852 0.22,-2.03346 -1.39046,-3.69369 -3.43622,-3.69369 l -42.50181,0 a 3.7041667,3.7041667 135 0 0 -3.70417,3.70417 z"
       id="path6912" />
    <path
       style="opacity:1;fill:#9c9c9c;fill-opacity:1;stroke:none;stroke-width:0.892352;stroke-linecap:round;stroke-linejoin:round;paint-order:stroke fill markers"
       inkscape:path-effect="#path-effect6892"
       inkscape:original-d="m 355.28332,501.37116 a 51.87529,51.87529 0 0 0 49.91012,49.91016 v -49.91016 z"
       d="m 355.55127,505.06485 c 2.61528,24.17307 21.77541,43.33322 45.94848,45.94852 2.03346,0.22 3.69369,-1.39046 3.69369,-3.43622 v -42.50182 a 3.7041667,3.7041667 45 0 0 -3.70417,-3.70417 h -42.50178 c -2.04576,0 -3.65622,1.66023 -3.43622,3.69369 z"
       id="path6910" />
    <path
       style="opacity:1;fill:#9c9c9c;fill-opacity:1;stroke:none;stroke-width:0.892352;stroke-linecap:round;stroke-linejoin:round;paint-order:stroke fill markers"
       inkscape:path-effect="#path-effect6892"
       inkscape:original-d="m 405.19344,447.67265 a 51.87529,51.87529 0 0 0 -49.91012,49.91013 h 49.91012 z"
       d="m 401.49975,447.9406 c -24.17306,2.6153 -43.33318,21.77543 -45.94848,45.94849 -0.22,2.03346 1.39046,3.69369 3.43622,3.69369 h 42.50178 a 3.7041667,3.7041667 135 0 0 3.70417,-3.70417 v -42.50179 c 0,-2.04576 -1.66023,-3.65622 -3.69369,-3.43622 z"
       id="path6908" />
    <path
       style="opacity:1;fill:#2b9747;fill-opacity:1;stroke:none;stroke-width:0.892352;stroke-linecap:round;stroke-linejoin:round;paint-order:stroke fill markers"
       inkscape:path-effect="#path-effect6892"
       inkscape:original-d="m 408.98183,447.64065 v 49.94217 h 49.94216 a 51.87529,51.87529 0 0 0 -49.94216,-49.94217 z"
       d="m 408.98183,451.34482 0,42.53383 a 3.7041667,3.7041667 45 0 0 3.70417,3.70417 h 42.53382 c 2.04576,0 3.65721,-1.66026 3.43843,-3.69385 -2.60329,-24.19757 -21.785,-43.37929 -45.98257,-45.98258 -2.03359,-0.21878 -3.69385,1.39267 -3.69385,3.43843 z"
       id="path6888" />
    <path
       style="opacity:1;fill:#9c9c9c;fill-opacity:1;stroke:none;stroke-width:0.892352;stroke-linecap:round;stroke-linejoin:round;paint-order:stroke fill markers"
       inkscape:path-effect="#path-effect6898"
       inkscape:original-d="m 742.37151,496.17692 v 47.23069 a 51.87529,51.87529 0 0 0 33.42121,-13.80947 z"
       d="m 742.37151,499.88109 v 39.82235 c 0,2.04576 1.66034,3.65845 3.69392,3.43963 9.85196,-1.06011 19.19721,-4.92152 26.92402,-11.12487 1.59492,-1.28045 1.6306,-3.59273 0.18403,-5.0393 l -28.18273,-28.18274 a 1.5343158,1.5343158 157.5 0 0 -2.61924,1.08493 z"
       id="path6976" />
    <path
       style="opacity:1;fill:#9c9c9c;fill-opacity:1;stroke:none;stroke-width:0.892352;stroke-linecap:round;stroke-linejoin:round;paint-order:stroke fill markers"
       inkscape:path-effect="#path-effect6898"
       inkscape:original-d="m 738.5826,496.17692 -33.42122,33.42122 a 51.87529,51.87529 0 0 0 33.42122,13.80947 z"
       d="m 735.96336,498.79616 -28.18274,28.18274 c -1.44657,1.44657 -1.41089,3.75884 0.18403,5.0393 7.72681,6.20335 17.07206,10.06476 26.92403,11.12487 2.03358,0.21882 3.69392,-1.39387 3.69392,-3.43963 v -39.82235 a 1.5343161,1.5343161 22.5 0 0 -2.61924,-1.08493 z"
       id="path6974" />
    <path
       style="opacity:1;fill:#9c9c9c;fill-opacity:1;stroke:none;stroke-width:0.892352;stroke-linecap:round;stroke-linejoin:round;paint-order:stroke fill markers"
       inkscape:path-effect="#path-effect6898"
       inkscape:original-d="m 745.05092,493.49749 33.42174,33.42174 a 51.87529,51.87529 0 0 0 13.80898,-33.42174 z"
       d="m 747.67016,496.11673 28.18326,28.18326 c 1.44657,1.44657 3.75883,1.41087 5.03926,-0.18407 6.2033,-7.72698 10.06458,-17.07241 11.12449,-26.9245 0.21878,-2.03359 -1.39394,-3.69393 -3.4397,-3.69393 l -39.82238,0 a 1.5343161,1.5343161 112.5 0 0 -1.08493,2.61924 z"
       id="path6972" />
    <path
       style="opacity:1;fill:#9c9c9c;fill-opacity:1;stroke:none;stroke-width:0.892352;stroke-linecap:round;stroke-linejoin:round;paint-order:stroke fill markers"
       inkscape:path-effect="#path-effect6898"
       inkscape:original-d="m 688.67247,493.49749 a 51.87529,51.87529 0 0 0 13.80898,33.42174 l 33.42171,-33.42174 z"
       d="m 688.93694,497.19142 c 1.05991,9.85209 4.92119,19.19752 11.12449,26.9245 1.28043,1.59494 3.59269,1.63064 5.03926,0.18407 l 28.18323,-28.18326 a 1.534317,1.534317 67.499987 0 0 -1.08493,-2.61924 l -39.82235,0 c -2.04576,0 -3.65848,1.66034 -3.4397,3.69393 z"
       id="path6970" />
    <path
       style="opacity:1;fill:#9c9c9c;fill-opacity:1;stroke:none;stroke-width:0.892352;stroke-linecap:round;stroke-linejoin:round;paint-order:stroke fill markers"
       inkscape:path-effect="#path-effect6898"
       inkscape:original-d="m 778.47266,456.28686 -33.42174,33.42171 h 47.26276 A 51.87529,51.87529 0 0 0 778.47266,456.2869 Z"
       d="m 775.85342,458.9061 -28.18326,28.18323 a 1.5343151,1.5343151 67.500013 0 0 1.08493,2.61924 h 39.85442 c 2.04576,0 3.65733,-1.66031 3.43714,-3.69374 -1.06723,-9.85575 -4.93796,-19.20234 -11.15132,-26.92691 -1.28194,-1.59373 -2.42267,-2.80104 -2.42267,-2.80106 z"
       id="path6968" />
    <path
       style="opacity:1;fill:#9c9c9c;fill-opacity:1;stroke:none;stroke-width:0.892352;stroke-linecap:round;stroke-linejoin:round;paint-order:stroke fill markers"
       inkscape:path-effect="#path-effect6898"
       inkscape:original-d="m 702.48145,456.28686 a 51.87529,51.87529 0 0 0 -13.80898,33.42171 h 47.23069 z"
       d="m 700.06143,459.09017 c -6.20329,7.72697 -10.06457,17.07239 -11.12449,26.92447 -0.21878,2.03359 1.39394,3.69393 3.4397,3.69393 h 39.82235 a 1.5343161,1.5343161 112.5 0 0 1.08493,-2.61924 L 705.10069,458.9061 c -1.44657,-1.44657 -3.75883,-1.41087 -5.03926,0.18407 z"
       id="path6966" />
    <path
       style="opacity:1;fill:#9c9c9c;fill-opacity:1;stroke:none;stroke-width:0.892352;stroke-linecap:round;stroke-linejoin:round;paint-order:stroke fill markers"
       inkscape:path-effect="#path-effect6898"
       inkscape:original-d="m 738.5826,439.79845 a 51.87529,51.87529 0 0 0 -33.42122,13.8095 l 33.42122,33.42121 z"
       d="m 734.88868,440.063 c -9.85197,1.06011 -19.19722,4.92153 -26.92403,11.12488 -1.59492,1.28046 -1.6306,3.59274 -0.18403,5.03931 l 28.18274,28.18273 a 1.5343164,1.5343164 157.5 0 0 2.61924,-1.08493 l 0,-39.82237 c 0,-2.04576 -1.66034,-3.65845 -3.69392,-3.43962 z"
       id="path6964" />
    <path
       style="opacity:1;fill:#2b9747;fill-opacity:1;stroke:none;stroke-width:0.892352;stroke-linecap:round;stroke-linejoin:round;paint-order:stroke fill markers"
       inkscape:path-effect="#path-effect6898"
       inkscape:original-d="m 742.37151,439.76645 v 47.26275 l 33.42172,-33.42174 a 51.87529,51.87529 0 0 0 -33.42172,-13.84101 z"
       d="m 742.37151,443.47062 v 39.85441 a 1.5343154,1.5343154 22.499991 0 0 2.61924,1.08493 l 28.18324,-28.18326 c 1.44657,-1.44657 1.41195,-3.75997 -0.18178,-5.0419 -7.72458,-6.21338 -17.07119,-10.08411 -26.92696,-11.15132 -2.03343,-0.22019 -3.69374,1.39138 -3.69374,3.43714 z"
       id="path6894" />
    <path
       style="opacity:1;fill:#9c9c9c;fill-opacity:1;stroke:none;stroke-width:0.892352;stroke-linecap:round;stroke-linejoin:round;paint-order:stroke fill markers"
       inkscape:path-effect="#path-effect6904"
       inkscape:original-d="m 576.61095,496.00689 v 48.52312 a 51.87529,51.87529 0 0 0 42.02223,-24.26155 z"
       d="m 576.61095,499.71106 v 41.11478 c 0,2.04576 1.66028,3.65663 3.69364,3.43573 14.48163,-1.57325 27.64601,-9.1737 36.24929,-20.92855 1.20798,-1.65049 0.64307,-3.89377 -1.1286,-4.91664 l -35.60643,-20.55741 a 2.1386006,2.1386006 150.00001 0 0 -3.2079,1.85209 z"
       id="path6942" />
    <path
       style="opacity:1;fill:#9c9c9c;fill-opacity:1;stroke:none;stroke-width:0.892352;stroke-linecap:round;stroke-linejoin:round;paint-order:stroke fill markers"
       inkscape:path-effect="#path-effect6904"
       inkscape:original-d="m 572.82204,496.00689 -42.02224,24.26157 a 51.87529,51.87529 0 0 0 42.02224,24.26155 z"
       d="m 569.61414,497.85897 -35.60644,20.55741 c -1.77167,1.02287 -2.33658,3.26615 -1.1286,4.91665 8.60329,11.75484 21.76766,19.3553 36.2493,20.92854 2.03336,0.2209 3.69364,-1.38997 3.69364,-3.43573 v -41.11478 a 2.1386008,2.1386008 29.999991 0 0 -3.2079,-1.85209 z"
       id="path6940" />
    <path
       style="opacity:1;fill:#9c9c9c;fill-opacity:1;stroke:none;stroke-width:0.892352;stroke-linecap:round;stroke-linejoin:round;paint-order:stroke fill markers"
       inkscape:path-effect="#path-effect6904"
       inkscape:original-d="m 528.90533,468.46387 a 51.87529,51.87529 0 0 0 -6.06422,24.26157 51.87529,51.87529 0 0 0 6.06422,24.26155 l 42.02224,-24.26155 z"
       d="m 527.28559,471.79425 c -2.41536,5.45302 -3.87237,11.28221 -4.30676,17.23037 -0.14897,2.03989 -0.14897,5.36175 0,7.40164 0.43439,5.94816 1.8914,11.77733 4.30676,17.23035 0.82833,1.87008 3.05597,2.50117 4.82764,1.4783 l 35.60644,-20.55739 a 2.1386024,2.1386024 90.00001 0 0 0,-3.70416 l -35.60644,-20.55741 c -1.77167,-1.02287 -3.99931,-0.39178 -4.82764,1.4783 z"
       id="path6938" />
    <path
       style="opacity:1;fill:#9c9c9c;fill-opacity:1;stroke:none;stroke-width:0.892352;stroke-linecap:round;stroke-linejoin:round;paint-order:stroke fill markers"
       inkscape:path-effect="#path-effect6904"
       inkscape:original-d="m 620.55813,468.44627 -42.05274,24.27914 42.02226,24.26208 a 51.87529,51.87529 0 0 0 6.06423,-24.26208 51.87529,51.87529 0 0 0 -6.03375,-24.27914 z"
       d="m 617.35023,470.29835 -35.63694,20.57498 a 2.1386235,2.1386235 90.000275 0 0 -10e-6,3.70419 l 35.60648,20.55786 c 1.77167,1.02289 3.9993,0.39181 4.82763,-1.47827 2.41543,-5.45318 3.87246,-11.28254 4.3068,-17.23088 0.14896,-2.03989 0.15135,-5.36173 0.005,-7.40183 -0.42601,-5.95213 -1.87597,-11.7866 -4.28583,-17.24571 -0.82599,-1.87112 -3.05179,-2.50321 -4.82346,-1.48034 z"
       id="path6936" />
    <path
       style="opacity:1;fill:#9c9c9c;fill-opacity:1;stroke:none;stroke-width:0.892352;stroke-linecap:round;stroke-linejoin:round;paint-order:stroke fill markers"
       inkscape:path-effect="#path-effect6904"
       inkscape:original-d="m 572.82204,440.92082 a 51.87529,51.87529 0 0 0 -42.02224,24.26155 l 42.02224,24.26158 z"
       d="m 569.1284,441.18926 c -14.48164,1.57324 -27.64601,9.1737 -36.2493,20.92855 -1.20798,1.65049 -0.64307,3.89377 1.1286,4.91664 l 35.60644,20.55742 a 2.1386004,2.1386004 150.00001 0 0 3.2079,-1.85209 v -41.11479 c 0,-2.04576 -1.66028,-3.65663 -3.69364,-3.43573 z"
       id="path6934" />
    <path
       style="opacity:1;fill:#2b9747;fill-opacity:1;stroke:none;stroke-width:0.892352;stroke-linecap:round;stroke-linejoin:round;paint-order:stroke fill markers"
       inkscape:path-effect="#path-effect6904"
       inkscape:original-d="m 576.61095,440.88932 v 48.55467 L 618.6616,465.1664 a 51.87529,51.87529 0 0 0 -42.05065,-24.27708 z"
       d="m 576.61095,444.59349 v 41.14633 a 2.1386177,2.1386177 30.000186 0 0 3.20791,1.85211 l 35.63483,-20.57347 c 1.77168,-1.02286 2.33707,-3.26643 1.12965,-4.91733 -8.60684,-11.76803 -21.78377,-19.37546 -36.27865,-20.94473 -2.03344,-0.22015 -3.69374,1.39133 -3.69374,3.43709 z"
       id="path6900" />
    <g
       id="g8527"
       transform="translate(-321.79251,357.71354)">
      <path
         id="path8519"
         style="fill:#9c9c9c;fill-opacity:1;stroke:none;stroke-width:1.31736;stroke-linecap:round;stroke-linejoin:round;stroke-miterlimit:4;stroke-dasharray:none;stroke-dashoffset:0;stroke-opacity:1;paint-order:stroke fill markers"
         d="m 435.64585,20.42578 c -2.10414,2.10398 -4.02804,4.38797 -5.74725,6.82755 -1.7192,2.43957 -3.23376,5.03467 -4.51869,7.7605 -1.28493,2.72582 -2.34038,5.58242 -3.14168,8.54514 -0.40066,1.48137 -0.73781,2.98936 -1.00827,4.52069 -0.13528,0.76567 -0.25387,1.53712 -0.35538,2.31412 -0.0481,0.368 -0.0795,0.74125 -0.11988,1.11164 a 3.1161161,3.1161161 0 0 0 -0.0337,0.31407 3.1161161,3.1161161 0 0 0 -0.0152,0.22671 3.1161161,3.1161161 0 0 0 0.44163,1.58893 3.1161161,3.1161161 0 0 0 0.67727,0.79828 3.1161161,3.1161161 0 0 0 0.0204,0.0159 3.1161161,3.1161161 0 0 0 0.91115,0.52327 3.1161161,3.1161161 0 0 0 0.0171,0.005 3.1161161,3.1161161 0 0 0 1.04384,0.18478 3.1161161,3.1161161 0 0 0 0.005,0 h 0.45129 2.15931 39.99418 c 1.10193,0 2.09466,-0.44751 2.81054,-1.16999 0.7225,-0.71586 1.16996,-1.70861 1.16996,-2.81055 V 11.18773 9.02838 8.57713 a 3.1161161,3.1161161 0 0 1 0,-7e-5 3.1161161,3.1161161 0 0 1 0,-6e-5 3.1161161,3.1161161 0 0 0 0,-0.004 3.1161161,3.1161161 0 0 0 -0.18477,-1.04386 3.1161161,3.1161161 0 0 0 -0.005,-0.0171 3.1161161,3.1161161 0 0 0 -0.52331,-0.91113 3.1161161,3.1161161 0 0 0 -0.0157,-0.0202 3.1161161,3.1161161 0 0 0 -0.79826,-0.67726 3.1161161,3.1161161 0 0 0 -1.58892,-0.44166 3.1161161,3.1161161 0 0 0 -0.22671,0.0154 3.1161161,3.1161161 0 0 0 -0.31408,0.0339 c -0.37041,0.0405 -0.74363,0.0718 -1.11164,0.11986 -0.77702,0.10156 -1.54845,0.2201 -2.31415,0.35537 -1.5313,0.2705 -3.03933,0.60762 -4.52068,1.00829 -2.9627,0.80131 -5.81931,1.85673 -8.54512,3.14168 -2.72586,1.28494 -5.32093,2.7995 -7.76051,4.51871 -2.43957,1.71922 -4.72357,3.64312 -6.82757,5.74725 -0.005,0.004 -0.007,0.008 -0.0107,0.0114 -0.005,0.004 -0.008,0.007 -0.0112,0.0108 z" />
      <path
         id="path8521"
         style="fill:#2b9747;fill-opacity:1;stroke:none;stroke-width:1.31736;stroke-linecap:round;stroke-linejoin:round;stroke-miterlimit:4;stroke-dasharray:none;stroke-dashoffset:0;stroke-opacity:1;paint-order:stroke fill markers"
         d="m 509.02932,20.40367 c -2.10395,-2.10414 -4.38795,-4.02804 -6.82753,-5.74726 -2.43958,-1.71921 -5.03469,-3.23376 -7.76051,-4.5187 -2.72581,-1.28495 -5.58241,-2.34037 -8.54516,-3.14169 -1.48135,-0.40066 -2.98934,-0.73778 -4.52068,-1.00829 -0.76565,-0.13526 -1.53713,-0.25381 -2.31411,-0.35537 -0.368,-0.0481 -0.74127,-0.0795 -1.11163,-0.11986 a 3.1161161,3.1161161 0 0 0 -0.31408,-0.034 3.1161161,3.1161161 0 0 0 -0.22671,-0.0154 3.1161161,3.1161161 0 0 0 -1.58893,0.44165 3.1161161,3.1161161 0 0 0 -0.7983,0.67725 3.1161161,3.1161161 0 0 0 -0.0157,0.0202 3.1161161,3.1161161 0 0 0 -0.52326,0.91114 3.1161161,3.1161161 0 0 0 -0.005,0.0171 3.1161161,3.1161161 0 0 0 -0.18476,1.04384 3.1161161,3.1161161 0 0 0 0,0.004 v 0.45126 2.15933 39.99415 c 0,1.10194 0.4475,2.09469 1.17,2.81055 0.71589,0.72249 1.70862,1.17 2.81054,1.17 h 39.99418 2.15931 0.45125 a 3.1161161,3.1161161 0 0 0 0.005,0 3.1161161,3.1161161 0 0 0 1.04383,-0.18478 3.1161161,3.1161161 0 0 0 0.0171,-0.005 3.1161161,3.1161161 0 0 0 0.91115,-0.52328 3.1161161,3.1161161 0 0 0 0.0203,-0.0159 3.1161161,3.1161161 0 0 0 0.67727,-0.79828 3.1161161,3.1161161 0 0 0 0.44167,-1.58893 3.1161161,3.1161161 0 0 0 -0.0152,-0.22671 3.1161161,3.1161161 0 0 0 -0.0337,-0.31407 c -0.0402,-0.37039 -0.0717,-0.74365 -0.11982,-1.11164 -0.10156,-0.777 -0.22015,-1.54845 -0.35538,-2.31412 -0.27051,-1.53134 -0.60762,-3.03933 -1.00832,-4.52069 -0.8013,-2.96273 -1.8567,-5.81932 -3.14168,-8.54514 -1.28493,-2.72583 -2.79949,-5.32094 -4.51869,-7.7605 -1.71921,-2.43958 -3.64311,-4.72359 -5.74725,-6.82755 -0.005,-0.004 -0.008,-0.007 -0.0115,-0.0108 -0.005,-0.004 -0.006,-0.008 -0.0107,-0.0114 z" />
      <path
         id="path8523"
         style="fill:#9c9c9c;fill-opacity:1;stroke:none;stroke-width:1.31736;stroke-linecap:round;stroke-linejoin:round;stroke-miterlimit:4;stroke-dasharray:none;stroke-dashoffset:0;stroke-opacity:1;paint-order:stroke fill markers"
         d="m 509.00384,93.73909 c 2.10413,-2.10399 4.02804,-4.38798 5.7472,-6.82755 1.71925,-2.43958 3.23381,-5.03469 4.51874,-7.76051 1.28493,-2.72582 2.34033,-5.58241 3.14168,-8.54514 0.40066,-1.48136 0.73781,-2.98935 1.00827,-4.52068 0.13528,-0.76568 0.25386,-1.53713 0.35538,-2.31413 0.0481,-0.368 0.0795,-0.74124 0.11988,-1.11164 a 3.1161161,3.1161161 0 0 0 0.0338,-0.31407 3.1161161,3.1161161 0 0 0 0.0152,-0.2267 3.1161161,3.1161161 0 0 0 -0.44167,-1.58894 3.1161161,3.1161161 0 0 0 -0.67722,-0.79828 3.1161161,3.1161161 0 0 0 -0.0204,-0.0159 3.1161161,3.1161161 0 0 0 -0.9111,-0.52328 3.1161161,3.1161161 0 0 0 -0.0171,-0.005 3.1161161,3.1161161 0 0 0 -1.04384,-0.18477 3.1161161,3.1161161 0 0 0 -0.005,0 h -0.4513 -2.15931 l -39.99418,2e-5 c -1.10192,-2e-5 -2.09465,0.44749 -2.81054,1.16998 -0.7225,0.71586 -1.17,1.70861 -1.17,2.81055 v 39.99416 2.15932 0.45128 a 3.1161161,3.1161161 0 0 1 0,5e-5 3.1161161,3.1161161 0 0 0 0,0.004 3.1161161,3.1161161 0 0 0 0.18481,1.04384 3.1161161,3.1161161 0 0 0 0.005,0.0171 3.1161161,3.1161161 0 0 0 0.52326,0.91114 3.1161161,3.1161161 0 0 0 0.0157,0.0202 3.1161161,3.1161161 0 0 0 0.7983,0.67725 3.1161161,3.1161161 0 0 0 1.58893,0.44166 3.1161161,3.1161161 0 0 0 0.22671,-0.0154 3.1161161,3.1161161 0 0 0 0.31407,-0.0339 c 0.37041,-0.0405 0.74364,-0.0718 1.11164,-0.11986 0.77698,-0.10156 1.54846,-0.22012 2.31411,-0.35538 1.53134,-0.27049 3.03933,-0.60761 4.52068,-1.00828 2.96275,-0.80133 5.81935,-1.85674 8.54516,-3.14169 2.72582,-1.28494 5.32093,-2.7995 7.76051,-4.51871 2.43958,-1.71921 4.72358,-3.64311 6.82753,-5.74724 0.005,-0.004 0.006,-0.008 0.0107,-0.0114 0.005,-0.004 0.008,-0.007 0.0115,-0.0108 z" />
      <path
         id="path8525"
         style="fill:#9c9c9c;fill-opacity:1;stroke:none;stroke-width:1.31736;stroke-linecap:round;stroke-linejoin:round;stroke-miterlimit:4;stroke-dasharray:none;stroke-dashoffset:0;stroke-opacity:1;paint-order:stroke fill markers"
         d="m 435.71555,93.76161 c 2.104,2.10414 4.38799,4.02804 6.82757,5.74725 2.43958,1.71921 5.03465,3.23377 7.76051,4.51871 2.72581,1.28494 5.58242,2.34036 8.54512,3.14169 1.48135,0.40066 2.98934,0.73778 4.52068,1.00829 0.7657,0.13526 1.53713,0.2538 2.31415,0.35537 0.36796,0.0481 0.74123,0.0795 1.11164,0.11986 a 3.1161161,3.1161161 0 0 0 0.31407,0.034 3.1161161,3.1161161 0 0 0 0.22667,0.0154 3.1161161,3.1161161 0 0 0 1.58893,-0.44165 3.1161161,3.1161161 0 0 0 0.7983,-0.67726 3.1161161,3.1161161 0 0 0 0.0157,-0.0202 3.1161161,3.1161161 0 0 0 0.5233,-0.91114 3.1161161,3.1161161 0 0 0 0.005,-0.0171 3.1161161,3.1161161 0 0 0 0.18477,-1.04384 3.1161161,3.1161161 0 0 0 0,-0.004 v -0.45124 -2.15934 -39.99416 c 0,-1.10195 -0.44751,-2.09469 -1.16996,-2.81055 -0.71588,-0.72249 -1.70862,-1.16999 -2.81059,-1.16999 h -39.99413 -2.15936 -0.45125 a 3.1161161,3.1161161 0 0 0 -0.005,0 3.1161161,3.1161161 0 0 0 -1.04388,0.18477 3.1161161,3.1161161 0 0 0 -0.0171,0.005 3.1161161,3.1161161 0 0 0 -0.91115,0.52327 3.1161161,3.1161161 0 0 0 -0.0204,0.0159 3.1161161,3.1161161 0 0 0 -0.67726,0.79828 3.1161161,3.1161161 0 0 0 -0.44163,1.58893 3.1161161,3.1161161 0 0 0 0.0152,0.2267 3.1161161,3.1161161 0 0 0 0.0338,0.31408 c 0.0402,0.37039 0.0718,0.74363 0.11987,1.11163 0.10156,0.777 0.2201,1.54846 0.35538,2.31413 0.27051,1.53133 0.60762,3.03932 1.00827,4.52068 0.80135,2.96274 1.85675,5.81933 3.14168,8.54515 1.28493,2.72583 2.79954,5.32093 4.5187,7.76051 1.71925,2.43958 3.64311,4.72357 5.74729,6.82755 0.005,0.004 0.008,0.007 0.0115,0.0108 0.005,0.004 0.007,0.008 0.0107,0.0114 z" />
    </g>
    <g
       id="g13218"
       transform="translate(50.139747,-6.7509393)">
      <path
         style="opacity:1;fill:#9c9c9c;fill-opacity:1;stroke:none;stroke-width:0.892352;stroke-linecap:round;stroke-linejoin:round;paint-order:stroke fill markers"
         inkscape:path-effect="#path-effect13092"
         inkscape:original-d="m 1390.0748,125.69712 v 49.91016 a 51.87529,51.87529 0 0 0 49.9102,-49.91016 z"
         d="m 1390.0748,129.40129 v 42.50182 c 0,2.04576 1.6602,3.65622 3.6937,3.43622 24.1731,-2.61526 43.3333,-21.77542 45.9486,-45.94852 0.22,-2.03346 -1.3905,-3.69369 -3.4363,-3.69369 h -42.5018 a 3.7041667,3.7041667 135 0 0 -3.7042,3.70417 z"
         id="path13088" />
      <path
         style="opacity:1;fill:#9c9c9c;fill-opacity:1;stroke:none;stroke-width:0.892352;stroke-linecap:round;stroke-linejoin:round;paint-order:stroke fill markers"
         inkscape:path-effect="#path-effect13098"
         inkscape:original-d="m 1336.3763,125.69712 a 51.87529,51.87529 0 0 0 49.9101,49.91016 v -49.91016 z"
         d="m 1336.6442,129.39081 c 2.6153,24.17306 21.7754,43.33321 45.9485,45.94852 2.0335,0.22 3.6937,-1.39046 3.6937,-3.43622 v -42.50182 a 3.7041667,3.7041667 45 0 0 -3.7042,-3.70417 h -42.5017 c -2.0458,0 -3.6563,1.66023 -3.4363,3.69369 z"
         id="path13094" />
      <path
         style="opacity:1;fill:#9c9c9c;fill-opacity:1;stroke:none;stroke-width:0.892352;stroke-linecap:round;stroke-linejoin:round;paint-order:stroke fill markers"
         inkscape:path-effect="#path-effect13104"
         inkscape:original-d="m 1386.2864,71.998605 a 51.87529,51.87529 0 0 0 -49.9101,49.910135 h 49.9101 z"
         d="m 1382.5927,72.266558 c -24.173,2.615309 -43.3332,21.775438 -45.9484,45.948492 -0.2201,2.03346 1.3904,3.69369 3.4362,3.69369 h 42.5017 a 3.7041667,3.7041667 135 0 0 3.7042,-3.70417 V 75.702772 c 0,-2.045755 -1.6602,-3.656216 -3.6937,-3.436214 z"
         id="path13100" />
      <path
         style="opacity:1;fill:#2b9747;fill-opacity:1;stroke:none;stroke-width:0.892352;stroke-linecap:round;stroke-linejoin:round;paint-order:stroke fill markers"
         inkscape:path-effect="#path-effect13110"
         inkscape:original-d="m 1390.0748,71.966605 v 49.942175 h 49.9422 a 51.87529,51.87529 0 0 0 -49.9422,-49.942175 z"
         d="m 1390.0748,75.670772 v 42.533838 a 3.7041667,3.7041667 45 0 0 3.7042,3.70417 h 42.5338 c 2.0458,0 3.6572,-1.66026 3.4385,-3.69385 -2.6033,-24.197587 -21.7851,-43.379311 -45.9826,-45.982584 -2.0336,-0.218782 -3.6939,1.392671 -3.6939,3.438426 z"
         id="path13106" />
    </g>
    <g
       id="g13204"
       transform="translate(-43.404493,1.120907)">
      <path
         style="opacity:1;fill:#9c9c9c;fill-opacity:1;stroke:none;stroke-width:0.892352;stroke-linecap:round;stroke-linejoin:round;paint-order:stroke fill markers"
         inkscape:path-effect="#path-effect13116"
         inkscape:original-d="m 1723.4645,120.50288 v 47.23069 a 51.87529,51.87529 0 0 0 33.4212,-13.80947 z"
         d="m 1723.4645,124.20705 v 39.82235 c 0,2.04576 1.6603,3.65845 3.6939,3.43962 9.852,-1.06011 19.1972,-4.92151 26.924,-11.12486 1.5949,-1.28045 1.6306,-3.59273 0.1841,-5.0393 l -28.1828,-28.18274 a 1.5343154,1.5343154 157.50001 0 0 -2.6192,1.08493 z"
         id="path13112" />
      <path
         style="opacity:1;fill:#9c9c9c;fill-opacity:1;stroke:none;stroke-width:0.892352;stroke-linecap:round;stroke-linejoin:round;paint-order:stroke fill markers"
         inkscape:path-effect="#path-effect13122"
         inkscape:original-d="m 1719.6756,120.50288 -33.4212,33.42122 a 51.87529,51.87529 0 0 0 33.4212,13.80947 z"
         d="m 1717.0564,123.12212 -28.1828,28.18274 c -1.4465,1.44657 -1.4108,3.75884 0.1841,5.0393 7.7268,6.20334 17.072,10.06475 26.924,11.12486 2.0336,0.21883 3.6939,-1.39386 3.6939,-3.43962 v -39.82235 a 1.5343154,1.5343154 22.499991 0 0 -2.6192,-1.08493 z"
         id="path13118" />
      <path
         style="opacity:1;fill:#9c9c9c;fill-opacity:1;stroke:none;stroke-width:0.892352;stroke-linecap:round;stroke-linejoin:round;paint-order:stroke fill markers"
         inkscape:path-effect="#path-effect13128"
         inkscape:original-d="m 1726.1439,117.82345 33.4217,33.42174 a 51.87529,51.87529 0 0 0 13.809,-33.42174 z"
         d="m 1728.7631,120.44269 28.1833,28.18326 c 1.4465,1.44656 3.7588,1.41087 5.0392,-0.18407 6.2033,-7.72698 10.0646,-17.0724 11.1245,-26.9245 0.2188,-2.03359 -1.3939,-3.69393 -3.4397,-3.69393 h -39.8223 a 1.5343174,1.5343174 112.50002 0 0 -1.085,2.61924 z"
         id="path13124" />
      <path
         style="opacity:1;fill:#9c9c9c;fill-opacity:1;stroke:none;stroke-width:0.892352;stroke-linecap:round;stroke-linejoin:round;paint-order:stroke fill markers"
         inkscape:path-effect="#path-effect13134"
         inkscape:original-d="m 1669.7654,117.82345 a 51.87529,51.87529 0 0 0 13.809,33.42174 l 33.4217,-33.42174 z"
         d="m 1670.0299,121.51738 c 1.0599,9.85209 4.9212,19.19752 11.1245,26.9245 1.2804,1.59494 3.5927,1.63063 5.0392,0.18407 l 28.1833,-28.18326 a 1.5343174,1.5343174 67.499983 0 0 -1.085,-2.61924 h -39.8223 c -2.0458,0 -3.6585,1.66034 -3.4397,3.69393 z"
         id="path13130" />
      <path
         style="opacity:1;fill:#9c9c9c;fill-opacity:1;stroke:none;stroke-width:0.892352;stroke-linecap:round;stroke-linejoin:round;paint-order:stroke fill markers"
         inkscape:path-effect="#path-effect13140"
         inkscape:original-d="m 1759.5656,80.612815 -33.4217,33.421715 h 47.2628 a 51.87529,51.87529 0 0 0 -13.8411,-33.421675 z"
         d="m 1756.9464,83.232057 -28.1833,28.183233 a 1.5343166,1.5343166 67.499994 0 0 1.085,2.61924 h 39.8544 c 2.0458,0 3.6574,-1.66031 3.4372,-3.69374 -1.0673,-9.85576 -4.938,-19.202358 -11.1514,-26.926918 -1.282,-1.593726 -2.4227,-2.801035 -2.4227,-2.801057 z"
         id="path13136" />
      <path
         style="opacity:1;fill:#9c9c9c;fill-opacity:1;stroke:none;stroke-width:0.892352;stroke-linecap:round;stroke-linejoin:round;paint-order:stroke fill markers"
         inkscape:path-effect="#path-effect13146"
         inkscape:original-d="m 1683.5744,80.612815 a 51.87529,51.87529 0 0 0 -13.809,33.421715 h 47.2307 z"
         d="m 1681.1544,83.416121 c -6.2033,7.726976 -10.0646,17.072389 -11.1245,26.924479 -0.2188,2.03359 1.3939,3.69393 3.4397,3.69393 h 39.8223 a 1.5343166,1.5343166 112.50001 0 0 1.085,-2.61924 l -28.1833,-28.183233 c -1.4465,-1.446567 -3.7588,-1.410874 -5.0392,0.184064 z"
         id="path13142" />
      <path
         style="opacity:1;fill:#9c9c9c;fill-opacity:1;stroke:none;stroke-width:0.892352;stroke-linecap:round;stroke-linejoin:round;paint-order:stroke fill markers"
         inkscape:path-effect="#path-effect13152"
         inkscape:original-d="m 1719.6756,64.124405 a 51.87529,51.87529 0 0 0 -33.4212,13.8095 l 33.4212,33.421215 z"
         d="m 1715.9817,64.388953 c -9.852,1.060118 -19.1972,4.921534 -26.924,11.124886 -1.5949,1.280459 -1.6306,3.592741 -0.1841,5.039308 l 28.1828,28.182733 a 1.5343156,1.5343156 157.50001 0 0 2.6192,-1.08493 V 67.828572 c 0,-2.045755 -1.6603,-3.658442 -3.6939,-3.439619 z"
         id="path13148" />
      <path
         style="opacity:1;fill:#2b9747;fill-opacity:1;stroke:none;stroke-width:0.892352;stroke-linecap:round;stroke-linejoin:round;paint-order:stroke fill markers"
         inkscape:path-effect="#path-effect13158"
         inkscape:original-d="m 1723.4645,64.092405 v 47.262755 l 33.4217,-33.421745 a 51.87529,51.87529 0 0 0 -33.4217,-13.84101 z"
         d="m 1723.4645,67.796572 v 39.854418 a 1.5343146,1.5343146 22.499981 0 0 2.6192,1.08493 l 28.1833,-28.183262 c 1.4465,-1.446568 1.4119,-3.75997 -0.1818,-5.041908 -7.7246,-6.213368 -17.0712,-10.084099 -26.927,-11.151318 -2.0334,-0.220188 -3.6937,1.391385 -3.6937,3.43714 z"
         id="path13154" />
    </g>
    <g
       id="g13212"
       transform="translate(2.447613)">
      <path
         style="opacity:1;fill:#9c9c9c;fill-opacity:1;stroke:none;stroke-width:0.892352;stroke-linecap:round;stroke-linejoin:round;paint-order:stroke fill markers"
         inkscape:path-effect="#path-effect13164"
         inkscape:original-d="m 1557.7039,120.33285 v 48.52312 a 51.87529,51.87529 0 0 0 42.0223,-24.26155 z"
         d="m 1557.7039,124.03702 v 41.11478 c 0,2.04576 1.6603,3.65663 3.6936,3.43573 14.4817,-1.57323 27.6461,-9.17368 36.2494,-20.92855 1.208,-1.65049 0.6431,-3.89377 -1.1286,-4.91664 l -35.6065,-20.55741 a 2.1386024,2.1386024 149.99999 0 0 -3.2079,1.85209 z"
         id="path13160" />
      <path
         style="opacity:1;fill:#9c9c9c;fill-opacity:1;stroke:none;stroke-width:0.892352;stroke-linecap:round;stroke-linejoin:round;paint-order:stroke fill markers"
         inkscape:path-effect="#path-effect13170"
         inkscape:original-d="m 1553.915,120.33285 -42.0222,24.26157 a 51.87529,51.87529 0 0 0 42.0222,24.26155 z"
         d="m 1550.7071,122.18494 -35.6064,20.55739 c -1.7717,1.02288 -2.3366,3.26616 -1.1286,4.91666 8.6033,11.75483 21.7676,19.35528 36.2493,20.92853 2.0333,0.2209 3.6936,-1.38996 3.6936,-3.43572 v -41.11478 a 2.1385998,2.1385998 29.999979 0 0 -3.2079,-1.85208 z"
         id="path13166" />
      <path
         style="opacity:1;fill:#9c9c9c;fill-opacity:1;stroke:none;stroke-width:0.892352;stroke-linecap:round;stroke-linejoin:round;paint-order:stroke fill markers"
         inkscape:path-effect="#path-effect13176"
         inkscape:original-d="m 1509.9983,92.789825 a 51.87529,51.87529 0 0 0 -6.0642,24.261575 51.87529,51.87529 0 0 0 6.0642,24.26155 l 42.0222,-24.26155 z"
         d="m 1508.3786,96.120211 c -2.4154,5.453019 -3.8724,11.282209 -4.3068,17.230369 -0.149,2.03989 -0.149,5.36175 0,7.40164 0.4344,5.94816 1.8914,11.77733 4.3068,17.23034 0.8283,1.87008 3.0559,2.50118 4.8276,1.47831 l 35.6064,-20.55739 a 2.1386046,2.1386046 90.000013 0 0 0,-3.70417 l -35.6064,-20.557399 c -1.7717,-1.022879 -3.9993,-0.391781 -4.8276,1.4783 z"
         id="path13172" />
      <path
         style="opacity:1;fill:#9c9c9c;fill-opacity:1;stroke:none;stroke-width:0.892352;stroke-linecap:round;stroke-linejoin:round;paint-order:stroke fill markers"
         inkscape:path-effect="#path-effect13182"
         inkscape:original-d="m 1601.6511,92.772225 -42.0527,24.279145 42.0222,24.26208 a 51.87529,51.87529 0 0 0 6.0643,-24.26208 51.87529,51.87529 0 0 0 -6.0338,-24.279145 z"
         d="m 1598.4432,94.624309 -35.6369,20.574981 a 2.1386263,2.1386263 90.000278 0 0 0,3.70419 l 35.6064,20.55786 c 1.7717,1.02289 3.9993,0.39181 4.8277,-1.47827 2.4154,-5.45317 3.8724,-11.28253 4.3068,-17.23088 0.149,-2.03989 0.1514,-5.36173 0.01,-7.40183 -0.426,-5.95214 -1.876,-11.78661 -4.2858,-17.245722 -0.826,-1.871117 -3.0518,-2.503207 -4.8235,-1.480329 z"
         id="path13178" />
      <path
         style="opacity:1;fill:#9c9c9c;fill-opacity:1;stroke:none;stroke-width:0.892352;stroke-linecap:round;stroke-linejoin:round;paint-order:stroke fill markers"
         inkscape:path-effect="#path-effect13188"
         inkscape:original-d="m 1553.915,65.246775 a 51.87529,51.87529 0 0 0 -42.0222,24.26155 l 42.0222,24.261585 z"
         d="m 1550.2214,65.51522 c -14.4817,1.573253 -27.646,9.173706 -36.2493,20.92854 -1.208,1.650491 -0.6431,3.893772 1.1286,4.916652 l 35.6064,20.557408 a 2.1385992,2.1385992 150.00003 0 0 3.2079,-1.85208 V 68.950942 c 0,-2.045755 -1.6603,-3.656621 -3.6936,-3.435722 z"
         id="path13184" />
      <path
         style="opacity:1;fill:#2b9747;fill-opacity:1;stroke:none;stroke-width:0.892352;stroke-linecap:round;stroke-linejoin:round;paint-order:stroke fill markers"
         inkscape:path-effect="#path-effect13194"
         inkscape:original-d="m 1557.7039,65.215275 v 48.554675 l 42.0507,-24.277595 a 51.87529,51.87529 0 0 0 -42.0507,-24.27708 z"
         d="m 1557.7039,68.919442 v 41.146338 a 2.1386187,2.1386187 30.000198 0 0 3.2079,1.85211 l 35.6349,-20.573474 c 1.7717,-1.022865 2.3371,-3.266429 1.1296,-4.917328 -8.6068,-11.768044 -21.7838,-19.375479 -36.2787,-20.944737 -2.0334,-0.220145 -3.6937,1.391336 -3.6937,3.437091 z"
         id="path13190" />
    </g>
    <path
       id="circle14012"
       style="opacity:0.349594;fill:#ff00ff;stroke:none;stroke-width:0.892352;stroke-linecap:round;stroke-linejoin:round;paint-order:stroke fill markers"
       d="m 878.57206,289.68425 v 39.85441 a 1.5343154,1.5343154 22.499991 0 0 2.61924,1.08493 l 28.18324,-28.18326 c 1.44657,-1.44657 1.41195,-3.75997 -0.18178,-5.0419 -7.72458,-6.21338 -17.07119,-10.08411 -26.92696,-11.15132 -2.03343,-0.22019 -3.69374,1.39138 -3.69374,3.43714 z m -7.48284,-3.4077 c -9.85209,1.05991 -19.19751,4.92118 -26.9245,11.12448 -1.59494,1.28043 -1.63064,3.59269 -0.18407,5.03926 l 28.18326,28.18326 a 1.5343161,1.5343161 157.5 0 0 2.61924,-1.08493 v -39.82237 c 0,-2.04576 -1.66034,-3.65848 -3.69393,-3.4397 z m 40.96475,18.84265 -28.18376,28.18377 a 1.5343164,1.5343164 67.499996 0 0 1.08493,2.61924 l 39.85492,0 c 2.04576,0 3.65735,-1.66031 3.43718,-3.69374 -1.06713,-9.85596 -4.93788,-19.20277 -11.15136,-26.92749 -1.28194,-1.59373 -3.59534,-1.62835 -5.04191,-0.18178 z m -75.79153,0.18454 c -6.20346,7.72695 -10.0649,17.07239 -11.12493,26.92454 -0.2188,2.03359 1.3939,3.69393 3.43966,3.69393 h 39.8229 a 1.5343161,1.5343161 112.5 0 0 1.08493,-2.61924 l -28.18326,-28.18326 c -1.44657,-1.44657 -3.75885,-1.41089 -5.0393,0.18403 z m -11.12493,38.10079 c 1.06003,9.85215 4.92147,19.19759 11.12493,26.92453 1.28045,1.59492 3.59273,1.6306 5.0393,0.18403 L 869.485,342.32985 a 1.5343154,1.5343154 67.500009 0 0 -1.08493,-2.61924 h -39.8229 c -2.04576,0 -3.65846,1.66034 -3.43966,3.69392 z m 58.7327,-1.07468 28.18324,28.18324 c 1.44657,1.44657 3.75885,1.41089 5.0393,-0.18403 6.20346,-7.72694 10.0649,-17.07238 11.12493,-26.92452 0.2188,-2.03359 -1.3939,-3.69393 -3.43966,-3.69393 h -39.82288 a 1.5343161,1.5343161 112.5 0 0 -1.08493,2.61924 z m -11.7063,2.67942 -28.18326,28.18326 c -1.44657,1.44657 -1.41087,3.75883 0.18407,5.03926 7.72698,6.20329 17.07241,10.06457 26.9245,11.12448 2.03359,0.21878 3.69393,-1.39394 3.69393,-3.4397 V 346.0942 a 1.5343161,1.5343161 22.5 0 0 -2.61924,-1.08493 z m 6.40815,1.08493 v 39.82237 c 0,2.04576 1.66034,3.65848 3.69393,3.4397 9.85208,-1.05991 19.1975,-4.92119 26.92448,-11.12448 1.59494,-1.28043 1.63064,-3.59269 0.18407,-5.03926 L 881.1913,345.00927 a 1.5343154,1.5343154 157.50001 0 0 -2.61924,1.08493 z"
       inkscape:path-effect="#path-effect14024"
       inkscape:original-d="m 878.57206,285.98008 v 47.26275 l 33.42172,-33.42174 a 51.87529,51.87529 0 0 0 -33.42172,-13.84101 z m -3.78891,0.032 a 51.87529,51.87529 0 0 0 -33.42174,13.80897 l 33.42174,33.42174 z m 39.89006,16.48788 -33.42224,33.42225 h 47.26326 a 51.87529,51.87529 0 0 0 -13.84102,-33.42225 z m -75.99071,5.1e-4 a 51.87529,51.87529 0 0 0 -13.8095,33.42174 h 47.23124 z m -13.8095,37.21014 a 51.87529,51.87529 0 0 0 13.8095,33.42172 l 33.42174,-33.42172 z m 56.37797,0 33.42172,33.42172 a 51.87529,51.87529 0 0 0 13.8095,-33.42172 z m -6.46782,2.67942 -33.42174,33.42174 a 51.87529,51.87529 0 0 0 33.42174,13.80897 z m 3.78891,0 v 47.23071 a 51.87529,51.87529 0 0 0 33.42172,-13.80897 z" />
    <path
       style="opacity:1;fill:#9c9c9c;stroke:none;stroke-width:0.892352;stroke-linecap:round;stroke-linejoin:round;paint-order:stroke fill markers;fill-opacity:1"
       inkscape:path-effect="#path-effect14032"
       inkscape:original-d="m 880.44295,492.06096 v 47.23071 a 51.87529,51.87529 0 0 0 33.42172,-13.80897 z"
       d="m 880.44295,495.76513 0,39.82237 c 0,2.04576 1.66034,3.65848 3.69393,3.4397 9.85208,-1.05991 19.1975,-4.92119 26.92448,-11.12448 1.59494,-1.28043 1.63064,-3.59269 0.18407,-5.03926 L 883.06219,494.6802 a 1.5343154,1.5343154 157.50001 0 0 -2.61924,1.08493 z"
       id="path14048" />
    <path
       style="opacity:1;fill:#9c9c9c;stroke:none;stroke-width:0.892352;stroke-linecap:round;stroke-linejoin:round;paint-order:stroke fill markers;fill-opacity:1"
       inkscape:path-effect="#path-effect14032"
       inkscape:original-d="M 876.65404,492.06096 843.2323,525.4827 a 51.87529,51.87529 0 0 0 33.42174,13.80897 z"
       d="m 874.0348,494.6802 -28.18326,28.18326 c -1.44657,1.44657 -1.41087,3.75883 0.18407,5.03926 7.72698,6.20329 17.07241,10.06457 26.9245,11.12448 2.03359,0.21878 3.69393,-1.39394 3.69393,-3.4397 l 0,-39.82237 a 1.5343161,1.5343161 22.5 0 0 -2.61924,-1.08493 z"
       id="path14046" />
    <path
       style="opacity:1;fill:#9c9c9c;stroke:none;stroke-width:0.892352;stroke-linecap:round;stroke-linejoin:round;paint-order:stroke fill markers;fill-opacity:1"
       inkscape:path-effect="#path-effect14032"
       inkscape:original-d="m 883.12186,489.38154 33.42172,33.42172 a 51.87529,51.87529 0 0 0 13.8095,-33.42172 z"
       d="m 885.7411,492.00078 28.18324,28.18324 c 1.44657,1.44657 3.75885,1.41089 5.0393,-0.18403 6.20346,-7.72694 10.0649,-17.07238 11.12493,-26.92452 0.2188,-2.03359 -1.3939,-3.69393 -3.43966,-3.69393 l -39.82288,0 a 1.5343161,1.5343161 112.5 0 0 -1.08493,2.61924 z"
       id="path14044" />
    <path
       style="opacity:1;fill:#9c9c9c;stroke:none;stroke-width:0.892352;stroke-linecap:round;stroke-linejoin:round;paint-order:stroke fill markers;fill-opacity:1"
       inkscape:path-effect="#path-effect14032"
       inkscape:original-d="m 826.74389,489.38154 a 51.87529,51.87529 0 0 0 13.8095,33.42172 l 33.42174,-33.42172 z"
       d="m 827.0084,493.07546 c 1.06003,9.85215 4.92147,19.19759 11.12493,26.92453 1.28045,1.59492 3.59273,1.6306 5.0393,0.18403 l 28.18326,-28.18324 a 1.5343154,1.5343154 67.500009 0 0 -1.08493,-2.61924 h -39.8229 c -2.04576,0 -3.65846,1.66034 -3.43966,3.69392 z"
       id="path14042" />
    <path
       style="opacity:1;fill:#9c9c9c;stroke:none;stroke-width:0.892352;stroke-linecap:round;stroke-linejoin:round;paint-order:stroke fill markers;fill-opacity:1"
       inkscape:path-effect="#path-effect14032"
       inkscape:original-d="m 840.55339,452.1714 a 51.87529,51.87529 0 0 0 -13.8095,33.42174 h 47.23124 z"
       d="m 838.13333,454.97467 c -6.20346,7.72695 -10.0649,17.07239 -11.12493,26.92454 -0.2188,2.03359 1.3939,3.69393 3.43966,3.69393 h 39.8229 a 1.5343161,1.5343161 112.5 0 0 1.08493,-2.61924 l -28.18326,-28.18326 c -1.44657,-1.44657 -3.75885,-1.41089 -5.0393,0.18403 z"
       id="path14040" />
    <path
       style="opacity:1;fill:#9c9c9c;stroke:none;stroke-width:0.892352;stroke-linecap:round;stroke-linejoin:round;paint-order:stroke fill markers;fill-opacity:1"
       inkscape:path-effect="#path-effect14032"
       inkscape:original-d="m 916.5441,452.17089 -33.42224,33.42225 h 47.26326 A 51.87529,51.87529 0 0 0 916.5441,452.17089 Z"
       d="M 913.92486,454.79013 885.7411,482.9739 a 1.5343164,1.5343164 67.499996 0 0 1.08493,2.61924 l 39.85492,0 c 2.04576,0 3.65735,-1.66031 3.43718,-3.69374 -1.06713,-9.85596 -4.93788,-19.20277 -11.15136,-26.92749 -1.28194,-1.59373 -3.59534,-1.62835 -5.04191,-0.18178 z"
       id="path14038" />
    <path
       style="opacity:1;fill:#9c9c9c;stroke:none;stroke-width:0.892352;stroke-linecap:round;stroke-linejoin:round;paint-order:stroke fill markers;fill-opacity:1"
       inkscape:path-effect="#path-effect14032"
       inkscape:original-d="m 876.65404,435.68301 a 51.87529,51.87529 0 0 0 -33.42174,13.80897 l 33.42174,33.42174 z"
       d="m 872.96011,435.94748 c -9.85209,1.05991 -19.19751,4.92118 -26.9245,11.12448 -1.59494,1.28043 -1.63064,3.59269 -0.18407,5.03926 l 28.18326,28.18326 a 1.5343161,1.5343161 157.5 0 0 2.61924,-1.08493 l 0,-39.82237 c 0,-2.04576 -1.66034,-3.65848 -3.69393,-3.4397 z"
       id="path14036" />
    <path
       style="opacity:1;fill:#2b9747;stroke:none;stroke-width:0.892352;stroke-linecap:round;stroke-linejoin:round;paint-order:stroke fill markers;fill-opacity:1"
       inkscape:path-effect="#path-effect14032"
       inkscape:original-d="m 880.44295,435.65101 v 47.26275 l 33.42172,-33.42174 a 51.87529,51.87529 0 0 0 -33.42172,-13.84101 z"
       d="m 880.44295,439.35518 v 39.85441 a 1.5343154,1.5343154 22.499991 0 0 2.61924,1.08493 l 28.18324,-28.18326 c 1.44657,-1.44657 1.41195,-3.75997 -0.18178,-5.0419 -7.72458,-6.21338 -17.07119,-10.08411 -26.92696,-11.15132 -2.03343,-0.22019 -3.69374,1.39138 -3.69374,3.43714 z"
       id="path14028" />
    <text
       xml:space="preserve"
       style="font-style:normal;font-weight:normal;font-size:10.5833px;line-height:1.25;font-family:sans-serif;fill:#000000;fill-opacity:1;stroke:none;stroke-width:0.264583"
       x="1009.5304"
       y="559.39514"
       id="text19028"><tspan
         sodipodi:role="line"
         id="tspan19026"
         style="stroke-width:0.264583"
         x="1009.5304"
         y="559.39514">* Path -&gt; Path Effects</tspan></text>
  </g>
</svg>
