<?xml version="1.0" encoding="UTF-8" standalone="no"?>
<!-- Created with Inkscape (http://www.inkscape.org/) -->

<svg
   width="210mm"
   height="297mm"
   viewBox="0 0 210 297"
   version="1.1"
   id="svg1695"
   xmlns="http://www.w3.org/2000/svg"
   xmlns:svg="http://www.w3.org/2000/svg">
  <defs
     id="defs1692" />
  <g
     id="layer1">
    <path
       style="fill:#9c9c9c;fill-opacity:1;stroke:none;stroke-width:0.892352;stroke-linecap:round;stroke-linejoin:round;paint-order:stroke fill markers"
       d="m 53.450705,57.18886 v 42.50182 c 0,2.04576 1.66023,3.65622 3.69369,3.43622 24.17308,-2.61529 43.333225,-21.77544 45.948515,-45.94852 0.22,-2.03346 -1.39046,-3.69369 -3.436225,-3.69369 h -42.50181 a 3.7041667,3.7041667 0 0 0 -3.70417,3.70417 z"
       id="path6912" />
    <path
       style="fill:#9c9c9c;fill-opacity:1;stroke:none;stroke-width:0.892352;stroke-linecap:round;stroke-linejoin:round;paint-order:stroke fill markers"
       d="m 0.020145,57.17838 c 2.61528,24.17307 21.77541,43.33322 45.94848,45.94852 2.03346,0.22 3.69369,-1.39046 3.69369,-3.43622 V 57.18886 a 3.7041667,3.7041667 0 0 0 -3.70417,-3.70417 H 3.456365 c -2.04576,0 -3.65622,1.66023 -3.43622,3.69369 z"
       id="path6910" />
    <path
       style="fill:#9c9c9c;fill-opacity:1;stroke:none;stroke-width:0.892352;stroke-linecap:round;stroke-linejoin:round;paint-order:stroke fill markers"
       d="m 45.968625,0.05413 c -24.17306,2.6153 -43.33318,21.77543 -45.94848,45.94849 -0.22,2.03346 1.39046,3.69369 3.43622,3.69369 h 42.50178 a 3.7041667,3.7041667 0 0 0 3.70417,-3.70417 V 3.49035 c 0,-2.04576 -1.66023,-3.65622 -3.69369,-3.43622 z"
       id="path6908" />
    <path
       style="fill:#2b9747;fill-opacity:1;stroke:none;stroke-width:0.892352;stroke-linecap:round;stroke-linejoin:round;paint-order:stroke fill markers"
       d="m 53.450705,3.45835 v 42.53383 a 3.7041667,3.7041667 0 0 0 3.70417,3.70417 h 42.53382 c 2.045755,0 3.657205,-1.66026 3.438435,-3.69385 C 100.52384,21.80493 81.342125,2.62321 57.144555,0.01992 c -2.03359,-0.21878 -3.69385,1.39267 -3.69385,3.43843 z"
       id="path6888" />
  </g>
</svg>
